%TF.GenerationSoftware,KiCad,Pcbnew,9.0.6*%
%TF.CreationDate,2026-01-08T18:16:21+11:00*%
%TF.ProjectId,cybdopico,63796264-6f70-4696-936f-2e6b69636164,rev?*%
%TF.SameCoordinates,Original*%
%TF.FileFunction,Paste,Top*%
%TF.FilePolarity,Positive*%
%FSLAX46Y46*%
G04 Gerber Fmt 4.6, Leading zero omitted, Abs format (unit mm)*
G04 Created by KiCad (PCBNEW 9.0.6) date 2026-01-08 18:16:21*
%MOMM*%
%LPD*%
G01*
G04 APERTURE LIST*
G04 Aperture macros list*
%AMRoundRect*
0 Rectangle with rounded corners*
0 $1 Rounding radius*
0 $2 $3 $4 $5 $6 $7 $8 $9 X,Y pos of 4 corners*
0 Add a 4 corners polygon primitive as box body*
4,1,4,$2,$3,$4,$5,$6,$7,$8,$9,$2,$3,0*
0 Add four circle primitives for the rounded corners*
1,1,$1+$1,$2,$3*
1,1,$1+$1,$4,$5*
1,1,$1+$1,$6,$7*
1,1,$1+$1,$8,$9*
0 Add four rect primitives between the rounded corners*
20,1,$1+$1,$2,$3,$4,$5,0*
20,1,$1+$1,$4,$5,$6,$7,0*
20,1,$1+$1,$6,$7,$8,$9,0*
20,1,$1+$1,$8,$9,$2,$3,0*%
G04 Aperture macros list end*
%ADD10RoundRect,0.200000X0.275000X-0.200000X0.275000X0.200000X-0.275000X0.200000X-0.275000X-0.200000X0*%
%ADD11RoundRect,0.237500X-0.237500X0.300000X-0.237500X-0.300000X0.237500X-0.300000X0.237500X0.300000X0*%
%ADD12RoundRect,0.237500X-0.237500X0.250000X-0.237500X-0.250000X0.237500X-0.250000X0.237500X0.250000X0*%
%ADD13RoundRect,0.150000X-0.587500X-0.150000X0.587500X-0.150000X0.587500X0.150000X-0.587500X0.150000X0*%
%ADD14RoundRect,0.237500X0.237500X-0.300000X0.237500X0.300000X-0.237500X0.300000X-0.237500X-0.300000X0*%
%ADD15RoundRect,0.249999X-0.395001X-0.395001X0.395001X-0.395001X0.395001X0.395001X-0.395001X0.395001X0*%
%ADD16RoundRect,0.050000X-0.387500X-0.050000X0.387500X-0.050000X0.387500X0.050000X-0.387500X0.050000X0*%
%ADD17RoundRect,0.050000X-0.050000X-0.387500X0.050000X-0.387500X0.050000X0.387500X-0.050000X0.387500X0*%
%ADD18RoundRect,0.150000X-0.150000X0.512500X-0.150000X-0.512500X0.150000X-0.512500X0.150000X0.512500X0*%
%ADD19R,0.290000X1.300000*%
%ADD20R,0.290000X1.350000*%
%ADD21R,0.220000X1.350000*%
%ADD22R,0.250000X1.350000*%
%ADD23R,0.250000X1.300000*%
%ADD24RoundRect,0.040000X0.605000X-0.040000X0.605000X0.040000X-0.605000X0.040000X-0.605000X-0.040000X0*%
%ADD25RoundRect,0.062500X0.062500X-0.387500X0.062500X0.387500X-0.062500X0.387500X-0.062500X-0.387500X0*%
%ADD26RoundRect,0.200000X-0.800000X0.200000X-0.800000X-0.200000X0.800000X-0.200000X0.800000X0.200000X0*%
%ADD27RoundRect,0.200000X-0.200000X-0.800000X0.200000X-0.800000X0.200000X0.800000X-0.200000X0.800000X0*%
%ADD28RoundRect,0.237500X0.300000X0.237500X-0.300000X0.237500X-0.300000X-0.237500X0.300000X-0.237500X0*%
%ADD29RoundRect,0.237500X-0.250000X-0.237500X0.250000X-0.237500X0.250000X0.237500X-0.250000X0.237500X0*%
%ADD30RoundRect,0.250000X-0.450000X-0.350000X0.450000X-0.350000X0.450000X0.350000X-0.450000X0.350000X0*%
%ADD31RoundRect,0.112500X0.112500X-0.187500X0.112500X0.187500X-0.112500X0.187500X-0.112500X-0.187500X0*%
%ADD32RoundRect,0.200000X-0.200000X-0.275000X0.200000X-0.275000X0.200000X0.275000X-0.200000X0.275000X0*%
G04 APERTURE END LIST*
D10*
%TO.C,R8*%
X113650000Y-91810000D03*
X113650000Y-90160000D03*
%TD*%
D11*
%TO.C,C2*%
X111110189Y-67637331D03*
X111110189Y-69362331D03*
%TD*%
D12*
%TO.C,R4*%
X108990000Y-60335000D03*
X108990000Y-62160000D03*
%TD*%
D13*
%TO.C,U4*%
X107041223Y-65698652D03*
X107041223Y-67598652D03*
X108916223Y-66648652D03*
%TD*%
D14*
%TO.C,C4*%
X105320000Y-89102500D03*
X105320000Y-87377500D03*
%TD*%
D15*
%TO.C,U1*%
X109073337Y-79101484D03*
X109073337Y-80701484D03*
X110673337Y-79101484D03*
X110673337Y-80701484D03*
D16*
X106435837Y-77301484D03*
X106435837Y-77701484D03*
X106435837Y-78101484D03*
X106435837Y-78501484D03*
X106435837Y-78901484D03*
X106435837Y-79301484D03*
X106435837Y-79701484D03*
X106435837Y-80101484D03*
X106435837Y-80501484D03*
X106435837Y-80901484D03*
X106435837Y-81301484D03*
X106435837Y-81701484D03*
X106435837Y-82101484D03*
X106435837Y-82501484D03*
D17*
X107273337Y-83338984D03*
X107673337Y-83338984D03*
X108073337Y-83338984D03*
X108473337Y-83338984D03*
X108873337Y-83338984D03*
X109273337Y-83338984D03*
X109673337Y-83338984D03*
X110073337Y-83338984D03*
X110473337Y-83338984D03*
X110873337Y-83338984D03*
X111273337Y-83338984D03*
X111673337Y-83338984D03*
X112073337Y-83338984D03*
X112473337Y-83338984D03*
D16*
X113310837Y-82501484D03*
X113310837Y-82101484D03*
X113310837Y-81701484D03*
X113310837Y-81301484D03*
X113310837Y-80901484D03*
X113310837Y-80501484D03*
X113310837Y-80101484D03*
X113310837Y-79701484D03*
X113310837Y-79301484D03*
X113310837Y-78901484D03*
X113310837Y-78501484D03*
X113310837Y-78101484D03*
X113310837Y-77701484D03*
X113310837Y-77301484D03*
D17*
X112473337Y-76463984D03*
X112073337Y-76463984D03*
X111673337Y-76463984D03*
X111273337Y-76463984D03*
X110873337Y-76463984D03*
X110473337Y-76463984D03*
X110073337Y-76463984D03*
X109673337Y-76463984D03*
X109273337Y-76463984D03*
X108873337Y-76463984D03*
X108473337Y-76463984D03*
X108073337Y-76463984D03*
X107673337Y-76463984D03*
X107273337Y-76463984D03*
%TD*%
D11*
%TO.C,C1*%
X112650189Y-67637331D03*
X112650189Y-69362331D03*
%TD*%
%TO.C,C14*%
X114272500Y-86485000D03*
X114272500Y-88210000D03*
%TD*%
D12*
%TO.C,R1*%
X112850000Y-64257500D03*
X112850000Y-66082500D03*
%TD*%
D10*
%TO.C,R14*%
X111200000Y-87390000D03*
X111200000Y-85740000D03*
%TD*%
D18*
%TO.C,U2*%
X114560000Y-59860000D03*
X113610000Y-59860000D03*
X112660000Y-59860000D03*
X112660000Y-62135000D03*
X113610000Y-62135000D03*
X114560000Y-62135000D03*
%TD*%
D19*
%TO.C,P1*%
X112970000Y-56580000D03*
D20*
X112170000Y-56580000D03*
D21*
X110920000Y-56580000D03*
X109920000Y-56580000D03*
X109420000Y-56580000D03*
X108420000Y-56580000D03*
D20*
X107170000Y-56580000D03*
X106370000Y-56580000D03*
D22*
X106620000Y-56580000D03*
X107420000Y-56580000D03*
D21*
X107920000Y-56580000D03*
X108920000Y-56580000D03*
X110420000Y-56580000D03*
X111420000Y-56580000D03*
D22*
X111920000Y-56580000D03*
D23*
X112720000Y-56580000D03*
%TD*%
D12*
%TO.C,R5*%
X105235000Y-66017362D03*
X105235000Y-67842362D03*
%TD*%
D14*
%TO.C,C6*%
X105900000Y-74825000D03*
X105900000Y-73100000D03*
%TD*%
D24*
%TO.C,U3*%
X108034783Y-72663957D03*
D25*
X107284783Y-74088957D03*
X107784783Y-74088957D03*
X108284783Y-74088957D03*
X108784783Y-74088957D03*
X108784783Y-71238957D03*
X108284783Y-71238957D03*
X107784783Y-71238957D03*
X107284783Y-71238957D03*
%TD*%
D11*
%TO.C,C3*%
X111200000Y-89090000D03*
X111200000Y-90815000D03*
%TD*%
D26*
%TO.C,SW1*%
X106175000Y-60000000D03*
X106175000Y-64200000D03*
%TD*%
D14*
%TO.C,C11*%
X112650189Y-72772331D03*
X112650189Y-71047331D03*
%TD*%
D11*
%TO.C,C7*%
X102910000Y-80901484D03*
X102910000Y-82626484D03*
%TD*%
D14*
%TO.C,C10*%
X115990000Y-72700000D03*
X115990000Y-70975000D03*
%TD*%
D27*
%TO.C,SW2*%
X105255922Y-92645825D03*
X109455922Y-92645825D03*
%TD*%
D14*
%TO.C,C9*%
X116220000Y-82350000D03*
X116220000Y-80625000D03*
%TD*%
D12*
%TO.C,R3*%
X110550000Y-60335000D03*
X110550000Y-62160000D03*
%TD*%
D28*
%TO.C,C12*%
X106960000Y-69400000D03*
X105235000Y-69400000D03*
%TD*%
D14*
%TO.C,C5*%
X114451258Y-76077788D03*
X114451258Y-74352788D03*
%TD*%
D29*
%TO.C,R6*%
X105262500Y-58530000D03*
X107087500Y-58530000D03*
%TD*%
D30*
%TO.C,Y1*%
X107140000Y-89090000D03*
X109340000Y-89090000D03*
X109340000Y-87390000D03*
X107140000Y-87390000D03*
%TD*%
D14*
%TO.C,C15*%
X111110189Y-72772331D03*
X111110189Y-71047331D03*
%TD*%
D11*
%TO.C,C8*%
X112740000Y-86485000D03*
X112740000Y-88210000D03*
%TD*%
D31*
%TO.C,D1*%
X110940000Y-66197500D03*
X110940000Y-64097500D03*
%TD*%
D32*
%TO.C,R7*%
X112500000Y-93370000D03*
X114150000Y-93370000D03*
%TD*%
D14*
%TO.C,C13*%
X114451258Y-72700000D03*
X114451258Y-70975000D03*
%TD*%
D12*
%TO.C,R2*%
X114395150Y-64268219D03*
X114395150Y-66093219D03*
%TD*%
M02*
