%TF.GenerationSoftware,KiCad,Pcbnew,9.0.6*%
%TF.CreationDate,2025-12-28T16:32:16+11:00*%
%TF.ProjectId,cybdopico,63796264-6f70-4696-936f-2e6b69636164,rev?*%
%TF.SameCoordinates,Original*%
%TF.FileFunction,Soldermask,Top*%
%TF.FilePolarity,Negative*%
%FSLAX46Y46*%
G04 Gerber Fmt 4.6, Leading zero omitted, Abs format (unit mm)*
G04 Created by KiCad (PCBNEW 9.0.6) date 2025-12-28 16:32:16*
%MOMM*%
%LPD*%
G01*
G04 APERTURE LIST*
G04 Aperture macros list*
%AMRoundRect*
0 Rectangle with rounded corners*
0 $1 Rounding radius*
0 $2 $3 $4 $5 $6 $7 $8 $9 X,Y pos of 4 corners*
0 Add a 4 corners polygon primitive as box body*
4,1,4,$2,$3,$4,$5,$6,$7,$8,$9,$2,$3,0*
0 Add four circle primitives for the rounded corners*
1,1,$1+$1,$2,$3*
1,1,$1+$1,$4,$5*
1,1,$1+$1,$6,$7*
1,1,$1+$1,$8,$9*
0 Add four rect primitives between the rounded corners*
20,1,$1+$1,$2,$3,$4,$5,0*
20,1,$1+$1,$4,$5,$6,$7,0*
20,1,$1+$1,$6,$7,$8,$9,0*
20,1,$1+$1,$8,$9,$2,$3,0*%
%AMFreePoly0*
4,1,37,0.800000,0.796148,0.878414,0.796148,1.032228,0.765552,1.177117,0.705537,1.307515,0.618408,1.418408,0.507515,1.505537,0.377117,1.565552,0.232228,1.596148,0.078414,1.596148,-0.078414,1.565552,-0.232228,1.505537,-0.377117,1.418408,-0.507515,1.307515,-0.618408,1.177117,-0.705537,1.032228,-0.765552,0.878414,-0.796148,0.800000,-0.796148,0.800000,-0.800000,-1.400000,-0.800000,
-1.403843,-0.796157,-1.439018,-0.796157,-1.511114,-0.766294,-1.566294,-0.711114,-1.596157,-0.639018,-1.596157,-0.603843,-1.600000,-0.600000,-1.600000,0.600000,-1.596157,0.603843,-1.596157,0.639018,-1.566294,0.711114,-1.511114,0.766294,-1.439018,0.796157,-1.403843,0.796157,-1.400000,0.800000,0.800000,0.800000,0.800000,0.796148,0.800000,0.796148,$1*%
%AMFreePoly1*
4,1,37,1.403843,0.796157,1.439018,0.796157,1.511114,0.766294,1.566294,0.711114,1.596157,0.639018,1.596157,0.603843,1.600000,0.600000,1.600000,-0.600000,1.596157,-0.603843,1.596157,-0.639018,1.566294,-0.711114,1.511114,-0.766294,1.439018,-0.796157,1.403843,-0.796157,1.400000,-0.800000,-0.800000,-0.800000,-0.800000,-0.796148,-0.878414,-0.796148,-1.032228,-0.765552,-1.177117,-0.705537,
-1.307515,-0.618408,-1.418408,-0.507515,-1.505537,-0.377117,-1.565552,-0.232228,-1.596148,-0.078414,-1.596148,0.078414,-1.565552,0.232228,-1.505537,0.377117,-1.418408,0.507515,-1.307515,0.618408,-1.177117,0.705537,-1.032228,0.765552,-0.878414,0.796148,-0.800000,0.796148,-0.800000,0.800000,1.400000,0.800000,1.403843,0.796157,1.403843,0.796157,$1*%
%AMFreePoly2*
4,1,37,0.603843,0.796157,0.639018,0.796157,0.711114,0.766294,0.766294,0.711114,0.796157,0.639018,0.796157,0.603843,0.800000,0.600000,0.800000,-0.600000,0.796157,-0.603843,0.796157,-0.639018,0.766294,-0.711114,0.711114,-0.766294,0.639018,-0.796157,0.603843,-0.796157,0.600000,-0.800000,0.000000,-0.800000,0.000000,-0.796148,-0.078414,-0.796148,-0.232228,-0.765552,-0.377117,-0.705537,
-0.507515,-0.618408,-0.618408,-0.507515,-0.705537,-0.377117,-0.765552,-0.232228,-0.796148,-0.078414,-0.796148,0.078414,-0.765552,0.232228,-0.705537,0.377117,-0.618408,0.507515,-0.507515,0.618408,-0.377117,0.705537,-0.232228,0.765552,-0.078414,0.796148,0.000000,0.796148,0.000000,0.800000,0.600000,0.800000,0.603843,0.796157,0.603843,0.796157,$1*%
%AMFreePoly3*
4,1,37,0.000000,0.796148,0.078414,0.796148,0.232228,0.765552,0.377117,0.705537,0.507515,0.618408,0.618408,0.507515,0.705537,0.377117,0.765552,0.232228,0.796148,0.078414,0.796148,-0.078414,0.765552,-0.232228,0.705537,-0.377117,0.618408,-0.507515,0.507515,-0.618408,0.377117,-0.705537,0.232228,-0.765552,0.078414,-0.796148,0.000000,-0.796148,0.000000,-0.800000,-0.600000,-0.800000,
-0.603843,-0.796157,-0.639018,-0.796157,-0.711114,-0.766294,-0.766294,-0.711114,-0.796157,-0.639018,-0.796157,-0.603843,-0.800000,-0.600000,-0.800000,0.600000,-0.796157,0.603843,-0.796157,0.639018,-0.766294,0.711114,-0.711114,0.766294,-0.639018,0.796157,-0.603843,0.796157,-0.600000,0.800000,0.000000,0.800000,0.000000,0.796148,0.000000,0.796148,$1*%
%AMFreePoly4*
4,1,505,0.196336,0.075501,0.393634,0.061052,0.591392,0.037864,0.789109,0.006607,0.986280,-0.032048,1.182406,-0.077431,1.376982,-0.128872,1.569508,-0.185702,1.759482,-0.247249,1.946400,-0.312844,2.129762,-0.381817,2.483805,-0.527215,2.576487,-0.568336,2.668592,-0.610786,2.852238,-0.697012,2.944361,-0.739453,3.037074,-0.780558,3.130667,-0.819660,3.225432,-0.856092,3.501522,-0.946615,
3.780142,-1.017913,4.060732,-1.070663,4.342730,-1.105539,4.625577,-1.123216,4.908711,-1.124371,5.191571,-1.109679,5.473597,-1.079814,5.754227,-1.035453,6.032902,-0.977270,6.309059,-0.905941,6.582139,-0.822141,6.851580,-0.726546,7.116822,-0.619830,7.377304,-0.502671,7.632465,-0.375741,7.675098,-0.352563,7.717783,-0.328019,7.803395,-0.278073,7.846364,-0.254292,7.889469,-0.232387,
7.932733,-0.213168,7.954430,-0.204819,7.976175,-0.197445,7.997969,-0.191148,8.019816,-0.186029,8.041719,-0.182189,8.063680,-0.179730,8.085701,-0.178753,8.107785,-0.179358,8.129935,-0.181649,8.152154,-0.185725,8.174443,-0.191688,8.196807,-0.199640,8.219247,-0.209681,8.241765,-0.221913,8.264366,-0.236438,8.287051,-0.253356,8.309823,-0.272769,8.332684,-0.294779,8.355829,-0.320031,
8.375891,-0.345378,8.393004,-0.370814,8.407302,-0.396331,8.418919,-0.421921,8.427987,-0.447577,8.434642,-0.473292,8.439016,-0.499058,8.441243,-0.524868,8.441456,-0.550714,8.439790,-0.576589,8.436378,-0.602486,8.431353,-0.628396,8.424850,-0.654314,8.417001,-0.680231,8.407942,-0.706140,8.386722,-0.757903,8.362260,-0.809546,8.307886,-0.912229,8.253372,-1.013716,8.228735,-1.063863,
8.207271,-1.113532,8.697942,-1.113532,8.706818,-1.113903,8.715963,-1.114996,8.725349,-1.116779,8.734946,-1.119218,8.744727,-1.122284,8.754661,-1.125943,8.774876,-1.134914,8.795360,-1.145875,8.815881,-1.158571,8.836209,-1.172746,8.856113,-1.188144,8.875361,-1.204510,8.893722,-1.221587,8.910965,-1.239120,8.926858,-1.256853,8.941171,-1.274531,8.953672,-1.291896,8.964130,-1.308695,
8.972314,-1.324670,8.984164,-1.353279,8.993606,-1.381203,9.000734,-1.408461,9.005644,-1.435074,9.008427,-1.461061,9.009180,-1.486443,9.007994,-1.511240,9.004966,-1.535472,9.000187,-1.559160,8.993754,-1.582323,8.985758,-1.604983,8.976296,-1.627158,8.965459,-1.648870,8.953343,-1.670138,8.940042,-1.690983,8.925649,-1.711424,8.893964,-1.751179,8.859040,-1.789564,8.821630,-1.826740,
8.782484,-1.862869,8.623594,-2.000151,8.430165,-2.168233,8.222995,-2.340882,8.003429,-2.516077,7.772814,-2.691796,7.532496,-2.866018,7.283820,-3.036720,7.028133,-3.201881,6.766781,-3.359481,6.501110,-3.507496,6.232466,-3.643906,5.962195,-3.766688,5.691643,-3.873822,5.422156,-3.963286,5.155080,-4.033058,5.022867,-4.059928,4.891761,-4.081116,4.761931,-4.096371,4.633546,-4.105440,
4.471979,-4.110676,4.307741,-4.111721,4.141260,-4.108754,3.972962,-4.101957,3.632623,-4.077593,3.290140,-4.040072,2.948929,-3.990836,2.612404,-3.931330,2.283981,-3.862996,1.967075,-3.787279,1.629456,-3.696195,1.291478,-3.597364,0.613797,-3.391909,0.273773,-3.293008,-0.067257,-3.201808,-0.409452,-3.122169,-0.581037,-3.087893,-0.752974,-3.057955,-0.844304,-3.043868,-0.937339,-3.031056,
-1.031515,-3.020239,-1.126268,-3.012132,-1.221033,-3.007455,-1.268244,-3.006627,-1.315247,-3.006925,-1.361970,-3.008440,-1.408344,-3.011260,-1.454297,-3.015476,-1.499760,-3.021178,-1.526832,-3.197271,-1.547212,-3.374035,-1.561775,-3.551348,-1.571396,-3.729087,-1.576949,-3.907130,-1.579309,-4.085355,-1.577945,-4.441858,-2.578996,-4.441858,-2.579711,-4.380578,-2.581613,-4.319275,-2.586934,-4.196605,
-2.589329,-4.135242,-2.590204,-4.100289,-2.381486,-4.100289,-2.380427,-4.233895,-1.785644,-4.233895,-1.786100,-4.057108,-1.783661,-3.880193,-1.777679,-3.703346,-1.767503,-3.526763,-1.752484,-3.350639,-1.731973,-3.175169,-1.705319,-3.000549,-1.671873,-2.826973,-1.670868,-2.826200,-1.669411,-2.825421,-1.665248,-2.823848,-1.659606,-2.822269,-1.652707,-2.820698,-1.636024,-2.817634,-1.616972,-2.814769,
-1.597324,-2.812214,-1.578855,-2.810081,-1.552546,-2.807526,-1.374076,-2.799993,-1.191203,-2.803228,-1.004613,-2.816243,-0.814995,-2.838053,-0.623036,-2.867669,-0.429424,-2.904107,-0.234846,-2.946378,-0.039989,-2.993496,0.347808,-3.098325,0.728468,-3.210702,1.446374,-3.426519,1.833811,-3.533138,2.228149,-3.631596,2.627867,-3.719153,3.031443,-3.793066,3.234203,-3.824051,3.437357,-3.850597,
3.640715,-3.872362,3.844088,-3.889003,4.047284,-3.900177,4.250115,-3.905543,4.452389,-3.904758,4.653918,-3.897478,4.776782,-3.887834,4.901348,-3.871999,5.154856,-3.822801,5.412983,-3.751970,5.674271,-3.661593,5.937259,-3.553757,6.200488,-3.430548,6.462500,-3.294053,6.721834,-3.146359,6.977033,-2.989552,7.226636,-2.825719,7.469185,-2.656947,7.703219,-2.485322,7.927281,-2.312932,
8.139910,-2.141862,8.525036,-1.812032,8.650895,-1.703652,8.685510,-1.672860,8.717117,-1.643372,8.731125,-1.629553,8.743580,-1.616583,8.754215,-1.604635,8.762764,-1.593883,8.771823,-1.580507,8.779734,-1.566628,8.786464,-1.552329,8.791986,-1.537694,8.796268,-1.522805,8.799280,-1.507746,8.800993,-1.492600,8.801353,-1.485020,8.801376,-1.477450,8.801060,-1.469899,8.800400,-1.462378,
8.799393,-1.454898,8.798034,-1.447469,8.796321,-1.440102,8.794249,-1.432806,8.791814,-1.425592,8.789013,-1.418470,8.785843,-1.411452,8.782298,-1.404547,8.778376,-1.397765,8.774073,-1.391118,8.769385,-1.384615,8.764308,-1.378267,8.758839,-1.372084,8.752974,-1.366077,8.750813,-1.364246,8.747565,-1.361844,8.738455,-1.355706,8.726938,-1.348424,8.714312,-1.340759,8.701871,-1.333473,
8.690913,-1.327326,8.682732,-1.323079,8.680089,-1.321906,8.678626,-1.321494,7.870589,-1.321494,7.870193,-1.321627,8.235053,-0.580926,8.235407,-0.570304,8.235187,-0.559831,8.234410,-0.549523,8.233088,-0.539394,8.231238,-0.529460,8.228873,-0.519736,8.226008,-0.510238,8.222657,-0.500982,8.218836,-0.491983,8.214559,-0.483255,8.209840,-0.474816,8.204695,-0.466679,8.199137,-0.458861,
8.193182,-0.451377,8.186843,-0.444242,8.180136,-0.437472,8.173075,-0.431082,8.165675,-0.425088,8.157950,-0.419505,8.149915,-0.414348,8.141585,-0.409633,8.132974,-0.405376,8.124097,-0.401591,8.114968,-0.398295,8.105602,-0.395502,8.096014,-0.393229,8.086217,-0.391489,8.076228,-0.390300,8.066060,-0.389676,8.055728,-0.389633,8.045247,-0.390187,8.034631,-0.391352,8.021931,-0.394488,
8.005406,-0.400711,7.985576,-0.409630,7.962956,-0.420857,7.911418,-0.448674,7.854930,-0.481045,7.743654,-0.546989,7.697141,-0.574328,7.662230,-0.593758,7.419847,-0.713946,7.171324,-0.825075,6.917326,-0.926624,6.658516,-1.018073,6.395558,-1.098902,6.129114,-1.168590,5.859849,-1.226618,5.588426,-1.272464,5.315508,-1.305608,5.041760,-1.325531,4.767843,-1.331712,4.494423,-1.323630,
4.222163,-1.300765,3.951726,-1.262597,3.683775,-1.208606,3.418975,-1.138270,3.341876,-1.114193,3.265917,-1.088549,3.116895,-1.033192,2.970863,-0.973460,2.826771,-0.910613,2.540219,-0.780618,2.395663,-0.715990,2.248855,-0.653289,1.894611,-0.514659,1.712061,-0.449790,1.526479,-0.388844,1.338305,-0.332539,1.147981,-0.281593,0.955946,-0.236725,0.762641,-0.198652,0.568507,-0.168094,
0.373984,-0.145768,0.179512,-0.132394,-0.014467,-0.128689,-0.207514,-0.135371,-0.399188,-0.153160,-0.589049,-0.182773,-0.776655,-0.224929,-0.784290,-0.227089,-0.792587,-0.229745,-0.810749,-0.236198,-0.850375,-0.251288,-0.870145,-0.258560,-0.888760,-0.264740,-0.897369,-0.267208,-0.905371,-0.269147,-0.912661,-0.270472,-0.919133,-0.271098,-0.921608,-0.271150,-0.924098,-0.271088,-0.929121,-0.270647,
-0.934207,-0.269833,-0.939357,-0.268703,-0.944576,-0.267313,-0.949866,-0.265720,-0.960673,-0.262152,-0.971802,-0.258454,-0.977495,-0.256699,-0.983278,-0.255081,-0.989154,-0.253657,-0.995127,-0.252485,-1.001198,-0.251621,-1.007372,-0.251122,-1.016821,-0.250829,-1.026025,-0.250862,-1.034989,-0.251216,-1.043720,-0.251886,-1.052225,-0.252865,-1.060512,-0.254148,-1.068585,-0.255729,-1.076453,-0.257603,
-1.084121,-0.259763,-1.091597,-0.262204,-1.105998,-0.267905,-1.119710,-0.274661,-1.132784,-0.282426,-1.145276,-0.291153,-1.157239,-0.300798,-1.168725,-0.311313,-1.179789,-0.322653,-1.190484,-0.334772,-1.200864,-0.347624,-1.210981,-0.361164,-1.220891,-0.375344,-1.239476,-0.403445,-1.258006,-0.432871,-1.294796,-0.495039,-1.331047,-0.560538,-1.366544,-0.628054,-1.401073,-0.696278,-1.434422,-0.763897,
-1.496719,-0.892075,-1.625572,-1.164835,-1.747240,-1.441381,-1.860861,-1.721571,-1.965577,-2.005260,-2.060525,-2.292304,-2.144847,-2.582558,-2.182753,-2.728844,-2.217680,-2.875879,-2.249520,-3.023644,-2.278165,-3.172122,-2.301198,-3.303514,-2.322328,-3.435413,-2.341043,-3.567756,-2.356829,-3.700479,-2.369174,-3.833517,-2.377564,-3.966809,-2.381486,-4.100289,-2.590204,-4.100289,-2.590865,-4.073862,
-2.591031,-4.012466,-2.589315,-3.951056,-2.574478,-3.733248,-2.550252,-3.512105,-2.517152,-3.288348,-2.475693,-3.062697,-2.426390,-2.835872,-2.369756,-2.608593,-2.306308,-2.381583,-2.236559,-2.155560,-2.161025,-1.931246,-2.080220,-1.709360,-1.994658,-1.490625,-1.904855,-1.275759,-1.811324,-1.065483,-1.714582,-0.860518,-1.615142,-0.661585,-1.513519,-0.469404,-1.473526,-0.395684,-1.431846,-0.322457,
-1.409823,-0.286864,-1.386718,-0.252398,-1.362310,-0.219394,-1.336381,-0.188185,-1.308709,-0.159106,-1.294150,-0.145470,-1.279074,-0.132492,-1.263451,-0.120213,-1.247256,-0.108676,-1.230460,-0.097923,-1.213035,-0.087995,-1.194955,-0.078933,-1.176192,-0.070781,-1.156717,-0.063579,-1.136505,-0.057370,-1.115526,-0.052194,-1.093754,-0.048095,-1.071162,-0.045114,-1.047720,-0.043292,-1.039209,-0.043048,
-1.030698,-0.043170,-1.022204,-0.043606,-1.013740,-0.044301,-0.996958,-0.046250,-0.980467,-0.048584,-0.964378,-0.050868,-0.948806,-0.052669,-0.941248,-0.053252,-0.933863,-0.053551,-0.926663,-0.053513,-0.919662,-0.053082,-0.902910,-0.051031,-0.884719,-0.047896,-0.865267,-0.043815,-0.844731,-0.038927,-0.801116,-0.027279,-0.755290,-0.014056,-0.662673,0.012700,-0.618717,0.024026,-0.597946,0.028692,
-0.578217,0.032511,-0.387779,0.059717,-0.194873,0.075504,-0.000001,0.080542,0.196336,0.075501,0.196336,0.075501,$1*%
%AMFreePoly5*
4,1,1796,-3.620579,1.611046,-3.417178,1.589730,-3.213473,1.558979,-3.010394,1.519792,-2.808872,1.473166,-2.609839,1.420101,-2.414225,1.361596,-2.222960,1.298649,-2.036977,1.232260,-1.684578,1.093147,-1.545418,1.033035,-1.408207,0.971149,-1.135915,0.846721,-0.998978,0.786510,-0.860275,0.729188,-0.718878,0.675922,-0.646879,0.651174,-0.573858,0.627877,-0.296871,0.552408,-0.017091,0.494163,
0.264860,0.452604,0.548360,0.427193,0.832786,0.417391,1.117514,0.422660,1.401922,0.442461,1.685386,0.476255,1.967285,0.523504,2.246996,0.583670,2.523895,0.656213,2.797360,0.740596,3.066767,0.836280,3.331495,0.942726,3.590920,1.059396,3.844419,1.185751,4.009999,1.281084,4.061645,1.310091,4.107120,1.334412,4.125937,1.343759,4.141286,1.350668,4.152524,1.354716,
4.156401,1.355536,4.159009,1.355482,4.173032,1.323335,3.733427,0.474419,3.729722,0.435790,3.730490,0.435735,3.731280,0.435623,3.732089,0.435458,3.732916,0.435242,3.734610,0.434679,3.736345,0.433963,3.738101,0.433126,3.739861,0.432200,3.741605,0.431214,3.743315,0.430201,3.749442,0.426488,3.750703,0.425801,3.751817,0.425271,3.752768,0.424930,3.753175,0.424841,
3.753535,0.424810,4.739901,0.424810,4.740260,0.422964,4.740546,0.421196,4.740760,0.419500,4.740904,0.417873,4.740981,0.416312,4.740993,0.414811,4.740941,0.413369,4.740829,0.411980,4.740658,0.410640,4.740431,0.409347,4.740149,0.408096,4.739815,0.406883,4.739431,0.405705,4.738999,0.404557,4.737999,0.402337,4.736834,0.400193,4.735520,0.398094,4.734075,0.396010,
4.732515,0.393909,4.729123,0.389535,4.725481,0.384726,4.715471,0.372240,4.702469,0.357927,4.686861,0.342049,4.669034,0.324868,4.628268,0.287648,4.583268,0.248366,4.422798,0.112602,4.057794,-0.194316,3.855579,-0.354548,3.642198,-0.516565,3.419132,-0.678317,3.187864,-0.837754,2.949874,-0.992828,2.706644,-1.141490,2.459656,-1.281691,2.210393,-1.411380,1.960334,-1.528510,
1.710963,-1.631031,1.463761,-1.716895,1.220209,-1.784051,1.100265,-1.809974,0.981790,-1.830451,0.864968,-1.845227,0.749984,-1.854046,0.544361,-1.860519,0.332951,-1.859919,0.117772,-1.852872,-0.099163,-1.840007,-0.315837,-1.821952,-0.530235,-1.799334,-0.740342,-1.772781,-0.944143,-1.742921,-1.146007,-1.708532,-1.346590,-1.669109,-1.744520,-1.577522,-2.139144,-1.472885,-2.531676,-1.359921,
-3.315309,-1.127908,-3.492040,-1.078686,-1.496662,-1.078686,-1.495738,-1.091968,-1.493227,-1.104190,-1.489011,-1.115242,-1.482975,-1.125017,-1.475003,-1.133406,-1.464981,-1.140299,-1.452792,-1.145587,-1.438320,-1.149163,-1.421450,-1.150916,-1.409766,-1.150824,-1.398042,-1.149543,-1.386295,-1.147134,-1.374545,-1.143654,-1.362810,-1.139163,-1.351106,-1.133718,-1.339453,-1.127379,-1.327868,-1.120204,
-1.316371,-1.112252,-1.304977,-1.103582,-1.293707,-1.094252,-1.282577,-1.084320,-1.260814,-1.062889,-1.239830,-1.039758,-1.219773,-1.015396,-1.200786,-0.990272,-1.183013,-0.964856,-1.166601,-0.939617,-1.151693,-0.915025,-1.138434,-0.891549,-1.126970,-0.869657,-1.117444,-0.849820,-1.111752,-0.835667,-1.104975,-0.816442,-1.089828,-0.770611,-1.082288,-0.747925,-1.075326,-0.728004,-1.069355,-0.712810,
-1.066871,-0.707596,-1.064792,-0.704299,-1.063236,-0.702615,-1.061502,-0.701102,-1.059599,-0.699754,-1.057539,-0.698561,-1.055331,-0.697514,-1.052986,-0.696607,-1.050513,-0.695829,-1.047923,-0.695174,-1.042431,-0.694194,-1.036591,-0.693600,-1.030486,-0.693326,-1.024195,-0.693303,-1.011383,-0.693743,-0.998805,-0.694384,-0.992807,-0.694611,-0.987111,-0.694686,-0.981798,-0.694543,-0.976950,-0.694113,
-0.860401,-1.233466,-0.852266,-1.245921,-0.843715,-1.257415,-0.834788,-1.267954,-0.825525,-1.277539,-0.815967,-1.286176,-0.806155,-1.293868,-0.796130,-1.300617,-0.785931,-1.306429,-0.775600,-1.311306,-0.765178,-1.315253,-0.754704,-1.318272,-0.744220,-1.320368,-0.733766,-1.321544,-0.723382,-1.321803,-0.713110,-1.321150,-0.702990,-1.319588,-0.693063,-1.317120,-0.683369,-1.313751,-0.673949,-1.309484,
-0.664843,-1.304322,-0.656093,-1.298270,-0.647738,-1.291330,-0.639819,-1.283506,-0.632378,-1.274803,-0.625454,-1.265223,-0.619088,-1.254771,-0.613321,-1.243450,-0.608194,-1.231263,-0.603747,-1.218215,-0.600020,-1.204308,-0.597055,-1.189547,-0.594892,-1.173935,-0.593130,-1.142347,-0.594314,-1.108446,-0.598178,-1.072590,-0.604456,-1.035138,-0.612882,-0.996450,-0.623190,-0.956885,-0.635113,-0.916802,
-0.648387,-0.876560,-0.662744,-0.836517,-0.677919,-0.797034,-0.702110,-0.739218,0.119267,-0.739218,0.122982,-0.821469,0.131424,-0.901124,0.144171,-0.976511,0.160799,-1.045953,0.180889,-1.107777,0.192099,-1.135309,0.204017,-1.160309,0.212747,-1.176419,0.221890,-1.191883,0.231439,-1.206697,0.241384,-1.220861,0.251718,-1.234372,0.262432,-1.247229,0.273519,-1.259429,0.284969,-1.270971,
0.296775,-1.281852,0.308928,-1.292071,0.321421,-1.301625,0.334244,-1.310514,0.347390,-1.318734,0.360850,-1.326284,0.374616,-1.333162,0.388680,-1.339366,0.403033,-1.344894,0.417668,-1.349744,0.432575,-1.353914,0.447748,-1.357403,0.463176,-1.360208,0.478854,-1.362327,0.494771,-1.363759,0.510919,-1.364501,0.527291,-1.364552,0.543879,-1.363909,0.560673,-1.362572,0.577666,-1.360536,
0.594849,-1.357802,0.612215,-1.354367,0.629754,-1.350228,0.647459,-1.345385,0.664552,-1.339504,0.682163,-1.331736,0.699947,-1.322234,0.717555,-1.311152,0.734641,-1.298643,0.750860,-1.284861,0.765863,-1.269957,0.772800,-1.262134,0.779304,-1.254087,0.785331,-1.245837,0.790837,-1.237403,0.795780,-1.228803,0.800115,-1.220058,0.803800,-1.211186,0.806791,-1.202206,0.809045,-1.193137,
0.810519,-1.183999,0.811169,-1.174811,0.810952,-1.165592,0.809824,-1.156361,0.807742,-1.147138,0.804664,-1.137941,0.800545,-1.128789,0.795342,-1.119702,0.789012,-1.110699,0.783886,-1.104913,0.778272,-1.100136,0.772194,-1.096306,0.765675,-1.093360,0.758737,-1.091235,0.751404,-1.089868,0.743699,-1.089197,0.735644,-1.089159,0.727264,-1.089690,0.718581,-1.090727,0.700398,-1.094070,
0.681282,-1.098685,0.661416,-1.104068,0.620177,-1.115127,0.599173,-1.119796,0.578159,-1.123220,0.567706,-1.124308,0.557321,-1.124896,0.547025,-1.124921,0.536842,-1.124321,0.526796,-1.123031,0.516909,-1.120991,0.507204,-1.118136,0.497705,-1.114403,0.480434,-1.105389,0.463903,-1.094187,0.448128,-1.080931,0.433126,-1.065756,0.418913,-1.048797,0.405504,-1.030187,0.392918,-1.010061,
0.381169,-0.988553,0.370273,-0.965798,0.360248,-0.941930,0.342873,-0.891394,0.329172,-0.838019,0.319277,-0.782881,0.313316,-0.727054,0.311419,-0.671614,0.313717,-0.617636,0.316479,-0.591531,0.320339,-0.566195,0.325312,-0.541762,0.331415,-0.518366,0.338664,-0.496143,0.347075,-0.475225,0.356664,-0.455748,0.367448,-0.437846,0.379443,-0.421654,0.392665,-0.407305,0.403694,-0.397287,
0.414349,-0.388850,0.424654,-0.381905,0.434633,-0.376358,0.444311,-0.372119,0.453712,-0.369095,0.462860,-0.367196,0.471780,-0.366329,0.480495,-0.366404,0.489030,-0.367329,0.497410,-0.369011,0.505658,-0.371360,0.513799,-0.374285,0.521857,-0.377692,0.537822,-0.385592,0.569825,-0.403167,0.586251,-0.411376,0.594656,-0.415017,0.603220,-0.418225,0.611968,-0.420910,0.620925,-0.422980,
0.630114,-0.424343,0.639560,-0.424908,0.649288,-0.424584,0.659320,-0.423279,0.669683,-0.420901,0.680399,-0.417359,0.685604,-0.403894,0.689494,-0.390434,0.692118,-0.377010,0.693523,-0.363652,0.693758,-0.350391,0.692872,-0.337259,0.690913,-0.324286,0.687930,-0.311503,0.683970,-0.298941,0.679083,-0.286631,0.673316,-0.274604,0.666719,-0.262891,0.659339,-0.251523,0.653606,-0.243757,
0.908979,-0.243757,0.909647,-0.283740,0.912151,-0.327181,0.916214,-0.373300,0.927901,-0.470441,0.981364,-0.809735,0.984934,-0.843520,0.988991,-0.891419,0.999124,-1.008884,1.005479,-1.068109,1.012879,-1.120768,1.017014,-1.143020,1.021463,-1.161691,1.026242,-1.176136,1.028762,-1.181572,1.031371,-1.185709,1.032191,-1.186706,1.033109,-1.187689,1.034120,-1.188657,1.035219,-1.189609,
1.037657,-1.191462,1.040379,-1.193245,1.043341,-1.194952,1.046500,-1.196578,1.049811,-1.198117,1.053232,-1.199566,1.056717,-1.200919,1.060224,-1.202170,1.063709,-1.203315,1.067127,-1.204349,1.070435,-1.205267,1.073589,-1.206064,1.076545,-1.206734,1.079260,-1.207272,1.100498,-1.209306,1.128030,-1.209185,1.160939,-1.207103,1.198306,-1.203252,1.282745,-1.191015,1.374006,-1.174017,
1.464745,-1.153801,1.547622,-1.131909,1.583817,-1.120817,1.615293,-1.109884,1.641133,-1.099303,1.660417,-1.089268,1.666986,-1.084875,1.673655,-1.079738,1.680293,-1.073935,1.686768,-1.067547,1.692949,-1.060654,1.698703,-1.053335,1.701379,-1.049541,1.703899,-1.045671,1.706247,-1.041734,1.708406,-1.037740,1.710359,-1.033700,1.712091,-1.029624,1.713584,-1.025521,1.714822,-1.021401,
1.715789,-1.017275,1.716468,-1.013152,1.716843,-1.009043,1.716898,-1.004957,1.716615,-1.000904,1.715978,-0.996895,1.714971,-0.992938,1.713578,-0.989046,1.711782,-0.985226,1.709566,-0.981490,1.706914,-0.977846,1.703809,-0.974306,1.703544,-0.974439,1.696573,-0.968071,1.688813,-0.962631,1.680311,-0.958071,1.671116,-0.954345,1.661273,-0.951408,1.650832,-0.949213,1.639838,-0.947713,
1.628340,-0.946864,1.604021,-0.946932,1.578254,-0.949045,1.551418,-0.952836,1.523892,-0.957936,1.496056,-0.963974,1.468290,-0.970584,1.414483,-0.984038,1.365506,-0.995347,1.343778,-0.999275,1.324396,-1.001559,1.276258,-1.005662,1.265474,-1.006175,1.255256,-1.006188,1.245638,-1.005553,1.236653,-1.004122,1.232409,-1.003061,1.228336,-1.001746,1.224437,-1.000158,1.220718,-0.998278,
1.217181,-0.996089,1.213833,-0.993571,1.210676,-0.990706,1.207715,-0.987476,1.204954,-0.983862,1.202397,-0.979845,1.200048,-0.975408,1.197912,-0.970531,1.195993,-0.965196,1.194294,-0.959385,1.192820,-0.953080,1.191576,-0.946261,1.185197,-0.900154,1.180232,-0.852171,1.173259,-0.751744,1.162124,-0.541266,1.158048,-0.488352,1.152812,-0.435906,1.146093,-0.384221,1.137569,-0.333591,
1.126920,-0.284309,1.113822,-0.236669,1.097954,-0.190962,1.078995,-0.147484,1.074764,-0.139266,1.070339,-0.131582,1.065736,-0.124430,1.060970,-0.117813,1.056055,-0.111730,1.051005,-0.106183,1.045836,-0.101172,1.040562,-0.096698,1.035198,-0.092762,1.029759,-0.089364,1.024259,-0.086506,1.018713,-0.084187,1.013135,-0.082410,1.012006,-0.082160,1.575791,-0.082160,1.576394,-0.097064,
1.577647,-0.112084,1.579423,-0.127064,1.581596,-0.141845,1.584040,-0.156271,1.594006,-0.207280,1.607156,-0.268443,1.625836,-0.344462,1.649103,-0.429801,1.676010,-0.518926,1.705615,-0.606302,1.721134,-0.647605,1.736974,-0.686395,1.753016,-0.721980,1.769141,-0.753670,1.785234,-0.780771,1.801174,-0.802592,1.812538,-0.815391,1.824784,-0.827675,1.837850,-0.839414,1.851675,-0.850580,
1.866198,-0.861143,1.881356,-0.871077,1.897087,-0.880350,1.913331,-0.888935,1.930024,-0.896803,1.947106,-0.903925,1.964515,-0.910272,1.982189,-0.915815,2.000065,-0.920526,2.018084,-0.924376,2.036182,-0.927336,2.054298,-0.929377,2.072370,-0.930470,2.090336,-0.930587,2.108136,-0.929699,2.125706,-0.927777,2.142985,-0.924792,2.159912,-0.920715,2.176425,-0.915518,2.192462,-0.909172,
2.207961,-0.901647,2.222860,-0.892916,2.237098,-0.882949,2.250613,-0.871718,2.263344,-0.859193,2.275228,-0.845347,2.286203,-0.830149,2.296209,-0.813572,2.305719,-0.794802,2.314297,-0.774858,2.328761,-0.731754,2.339808,-0.684874,2.347644,-0.634832,2.352474,-0.582241,2.354506,-0.527717,2.353944,-0.471874,2.350994,-0.415325,2.345864,-0.358684,2.338758,-0.302566,2.329883,-0.247585,
2.319445,-0.194354,2.307649,-0.143489,2.294703,-0.095602,2.280810,-0.051309,2.266179,-0.011223,2.260289,0.002368,2.252888,0.017141,2.244122,0.032640,2.234140,0.048409,2.223087,0.063993,2.211113,0.078936,2.198363,0.092783,2.191743,0.099153,2.184985,0.105078,2.178107,0.110500,2.171127,0.115365,2.164063,0.119613,2.156935,0.123188,2.149760,0.126034,2.142557,0.128093,
2.135345,0.129309,2.128141,0.129624,2.120964,0.128981,2.113833,0.127324,2.106766,0.124596,2.099781,0.120739,2.092897,0.115697,2.086132,0.109413,2.079505,0.101830,2.073033,0.092890,2.068277,0.085118,2.064182,0.077162,2.060719,0.069036,2.057857,0.060749,2.055565,0.052315,2.053814,0.043743,2.052572,0.035047,2.051809,0.026238,2.051495,0.017327,2.051599,0.008325,
2.052942,-0.009901,2.055593,-0.028349,2.059308,-0.046926,2.063846,-0.065538,2.068962,-0.084093,2.079954,-0.120660,2.090339,-0.155884,2.094695,-0.172761,2.098169,-0.189023,2.107446,-0.240437,2.118337,-0.306918,2.128946,-0.383032,2.137377,-0.463346,2.140183,-0.503380,2.141734,-0.542427,2.141792,-0.579806,2.140120,-0.614839,2.136482,-0.646847,2.130640,-0.675150,2.126819,-0.687700,
2.122358,-0.699069,2.117228,-0.709173,2.111398,-0.717926,2.105893,-0.724578,2.100179,-0.730533,2.094274,-0.735807,2.088197,-0.740418,2.081966,-0.744384,2.075599,-0.747723,2.069116,-0.750451,2.062533,-0.752586,2.055870,-0.754146,2.049144,-0.755149,2.042375,-0.755611,2.035580,-0.755551,2.028777,-0.754986,2.021986,-0.753934,2.015223,-0.752411,2.008509,-0.750436,2.001860,-0.748027,
1.995295,-0.745200,1.988833,-0.741973,1.982491,-0.738364,1.976289,-0.734390,1.970245,-0.730069,1.964376,-0.725418,1.958701,-0.720456,1.953238,-0.715199,1.948006,-0.709664,1.943023,-0.703871,1.938308,-0.697835,1.933878,-0.691575,1.929752,-0.685108,1.925949,-0.678452,1.922485,-0.671624,1.908740,-0.640720,1.896235,-0.608588,1.884829,-0.575384,1.874383,-0.541267,1.864756,-0.506393,
1.855808,-0.470919,1.839390,-0.398805,1.808539,-0.254309,1.791865,-0.184446,1.782725,-0.150661,1.772864,-0.117851,1.763118,-0.090018,1.756785,-0.074203,1.749519,-0.057784,1.741348,-0.041257,1.732304,-0.025119,1.722415,-0.009866,1.711712,0.004007,1.706065,0.010270,1.700225,0.016001,1.694196,0.021140,1.687983,0.025623,1.681588,0.029388,1.675016,0.032374,1.668270,0.034518,
1.661355,0.035759,1.654272,0.036034,1.647028,0.035281,1.639624,0.033439,1.632066,0.030445,1.624356,0.026237,1.616499,0.020753,1.608497,0.013931,1.600356,0.005710,1.596418,0.001027,1.592879,-0.003979,1.589724,-0.009290,1.586935,-0.014885,1.584499,-0.020745,1.582398,-0.026850,1.580618,-0.033181,1.579141,-0.039718,1.577039,-0.053330,1.575964,-0.067530,1.575791,-0.082160,
1.012006,-0.082160,1.007541,-0.081174,1.001945,-0.080480,0.996362,-0.080329,0.990807,-0.080722,0.985293,-0.081659,0.979837,-0.083142,0.974452,-0.085171,0.969154,-0.087746,0.963956,-0.090869,0.958875,-0.094541,0.953924,-0.098761,0.949118,-0.103531,0.944471,-0.108852,0.940000,-0.114723,0.935717,-0.121147,0.931639,-0.128124,0.927779,-0.135654,0.924153,-0.143739,0.920774,-0.152378,
0.917168,-0.164062,0.914265,-0.177294,0.910426,-0.208015,0.908979,-0.243757,0.653606,-0.243757,0.651225,-0.240531,0.642426,-0.229946,0.632989,-0.219798,0.622964,-0.210118,0.612399,-0.200939,0.601341,-0.192289,0.589840,-0.184201,0.577945,-0.176705,0.565702,-0.169833,0.553161,-0.163615,0.540371,-0.158082,0.527379,-0.153264,0.514234,-0.149194,0.500985,-0.145902,0.487680,-0.143419,
0.474367,-0.141775,0.461095,-0.141002,0.447912,-0.141131,0.434866,-0.142192,0.434866,-0.142324,0.400347,-0.148509,0.368116,-0.158440,0.338122,-0.171907,0.310311,-0.188703,0.284631,-0.208617,0.261029,-0.231440,0.239453,-0.256963,0.219849,-0.284976,0.202165,-0.315271,0.186348,-0.347637,0.172345,-0.381867,0.160104,-0.417749,0.149572,-0.455076,0.140696,-0.493638,0.133423,-0.533225,
0.127701,-0.573628,0.120699,-0.656046,0.119267,-0.739218,-0.702110,-0.739218,-0.709657,-0.721181,-0.741472,-0.651874,-0.771236,-0.591984,-0.753004,-0.568810,-0.731416,-0.543857,-0.680978,-0.489340,-0.625526,-0.429885,-0.597672,-0.398758,-0.570665,-0.366939,-0.545208,-0.334611,-0.521999,-0.301954,-0.511458,-0.285559,-0.501741,-0.269149,-0.492937,-0.252748,-0.485133,-0.236378,-0.478416,-0.220061,
-0.472875,-0.203821,-0.468597,-0.187680,-0.465670,-0.171661,-0.464180,-0.155785,-0.464216,-0.140077,-0.465865,-0.124558,-0.469214,-0.109252,-0.470079,-0.106321,-0.470538,-0.104893,-0.471023,-0.103493,-0.471542,-0.102122,-0.472100,-0.100782,-0.472706,-0.099476,-0.473365,-0.098205,-0.474085,-0.096972,-0.474872,-0.095777,-0.475733,-0.094624,-0.476675,-0.093513,-0.477704,-0.092448,-0.478828,-0.091429,
-0.480053,-0.090459,-0.481386,-0.089540,-0.489583,-0.085201,-0.498301,-0.082231,-0.507500,-0.080558,-0.517143,-0.080111,-0.527191,-0.080817,-0.537606,-0.082605,-0.548350,-0.085403,-0.559384,-0.089139,-0.570671,-0.093741,-0.582171,-0.099138,-0.605662,-0.112027,-0.629550,-0.127232,-0.653530,-0.144177,-0.811982,-0.273426,-0.960414,-0.427016,-0.960546,-0.427016,-0.937798,-0.279445,-0.925825,-0.189459,
-0.921364,-0.142968,-0.918560,-0.096452,-0.917890,-0.050640,-0.919834,-0.006262,-0.924870,0.035955,-0.928698,0.056024,-0.933478,0.075279,-0.939270,0.093628,-0.946135,0.110981,-0.954133,0.127247,-0.963322,0.142333,-0.973764,0.156149,-0.985517,0.168604,-0.988148,0.170810,2.423343,0.170810,2.657632,-0.630613,2.673169,-0.633462,2.689492,-0.635235,2.706530,-0.635966,2.724206,-0.635690,
2.761181,-0.632253,2.799827,-0.625195,2.839550,-0.614791,2.879760,-0.601315,2.919865,-0.585039,2.959273,-0.566237,2.997393,-0.545182,3.033633,-0.522148,3.067402,-0.497409,3.098107,-0.471237,3.125158,-0.443906,3.137127,-0.429892,3.147962,-0.415690,3.157586,-0.401335,3.165928,-0.386862,3.172911,-0.372304,3.178464,-0.357695,3.181941,-0.345687,3.184666,-0.333211,3.186654,-0.320321,
3.187919,-0.307068,3.188473,-0.293505,3.188331,-0.279684,3.186013,-0.251477,3.181075,-0.222866,3.173627,-0.194268,3.163779,-0.166102,3.151642,-0.138786,3.137325,-0.112738,3.129383,-0.100320,3.120938,-0.088376,3.112003,-0.076958,3.102592,-0.066119,3.092718,-0.055910,3.082396,-0.046384,3.071639,-0.037593,3.060460,-0.029590,3.048875,-0.022427,3.036896,-0.016156,3.024537,-0.010829,
3.011812,-0.006499,2.998735,-0.003217,2.985319,-0.001037,2.985185,-0.001037,3.000451,0.043248,3.007729,0.066437,3.014465,0.090141,3.020430,0.114221,3.025395,0.138541,3.029129,0.162961,3.031405,0.187346,3.031992,0.211558,3.030662,0.235458,3.029206,0.247248,3.027185,0.258909,3.024570,0.270423,3.021332,0.281774,3.017443,0.292943,3.012874,0.303914,3.007596,0.314670,
3.001581,0.325194,2.994800,0.335467,2.987224,0.345474,2.978826,0.355196,2.969575,0.364617,2.960512,0.372365,2.950694,0.379043,2.940171,0.384695,2.928993,0.389365,2.917209,0.393095,2.904870,0.395930,2.892025,0.397912,2.878724,0.399085,2.865017,0.399494,2.850953,0.399180,2.821956,0.396562,2.792132,0.391578,2.761877,0.384577,2.731592,0.375906,2.701674,0.365913,
2.672523,0.354946,2.644535,0.343353,2.618110,0.331482,2.593646,0.319681,2.552195,0.297678,2.533061,0.286903,2.512379,0.274934,2.501835,0.268461,2.491357,0.261640,2.481095,0.254457,2.471199,0.246894,2.461822,0.238936,2.453113,0.230567,2.445224,0.221770,2.441633,0.217206,2.438304,0.212529,2.435256,0.207738,2.432506,0.202829,2.430074,0.197802,2.427979,0.192653,
2.426239,0.187382,2.424874,0.181986,2.423903,0.176462,2.423343,0.170810,-0.988148,0.170810,-0.998642,0.179607,-1.013198,0.189066,-1.025484,0.195590,-1.037201,0.200954,-1.048363,0.205200,-1.058984,0.208370,-1.069081,0.210506,-1.078667,0.211650,-1.087758,0.211846,-1.096368,0.211136,-1.104512,0.209562,-1.112206,0.207165,-1.119463,0.203990,-1.126298,0.200077,-1.132727,0.195470,
-1.138764,0.190210,-1.144425,0.184341,-1.149723,0.177904,-1.154674,0.170942,-1.159293,0.163497,-1.163594,0.155612,-1.167592,0.147328,-1.171302,0.138689,-1.174739,0.129737,-1.180853,0.111062,-1.186052,0.091641,-1.190456,0.071815,-1.194181,0.051922,-1.197348,0.032300,-1.205087,-0.022960,-1.211290,-0.075220,-1.220574,-0.172452,-1.228184,-0.262810,-1.237102,-0.349708,-1.242984,-0.392928,
-1.250311,-0.436564,-1.259457,-0.481043,-1.270795,-0.526791,-1.284696,-0.574237,-1.301535,-0.623806,-1.321684,-0.675925,-1.345515,-0.731023,-1.353962,-0.747700,-1.366233,-0.769716,-1.398550,-0.826285,-1.435061,-0.893762,-1.452576,-0.929413,-1.468364,-0.965179,-1.481500,-1.000188,-1.486784,-1.017137,-1.491058,-1.033570,-1.494206,-1.049379,-1.496112,-1.064454,-1.496662,-1.078686,-3.492040,-1.078686,
-3.708836,-1.018306,-4.105120,-0.919273,-4.302475,-0.875455,-4.500461,-0.836391,-4.699097,-0.803748,-4.798666,-0.790355,-4.898407,-0.779193,-4.998320,-0.770469,-5.098410,-0.764393,-5.198679,-0.761171,-5.299130,-0.761013,-5.399766,-0.764127,-5.500588,-0.770722,-5.601601,-0.781004,-5.702806,-0.795184,-5.703996,-0.795467,-5.705111,-0.795793,-5.706155,-0.796161,-5.707130,-0.796569,-5.708041,-0.797017,
-5.708889,-0.797502,-5.709679,-0.798023,-5.710413,-0.798578,-5.711094,-0.799166,-5.711725,-0.799786,-5.712310,-0.800436,-5.712852,-0.801114,-5.713353,-0.801819,-5.713817,-0.802549,-5.714247,-0.803304,-5.714646,-0.804080,-5.715017,-0.804878,-5.715363,-0.805695,-5.715994,-0.807382,-5.716562,-0.809128,-5.717093,-0.810922,-5.718144,-0.814605,-5.718712,-0.816470,-5.719342,-0.818335,-5.723460,-0.831170,
-5.727385,-0.845394,-5.731127,-0.860823,-5.734694,-0.877273,-5.741343,-0.912504,-5.747405,-0.949618,-5.767232,-1.087548,-5.787054,-1.225519,-5.803695,-1.364100,-5.817359,-1.503146,-5.828252,-1.642512,-5.836577,-1.782051,-5.842539,-1.921618,-5.846343,-2.061067,-5.848195,-2.200253,-6.140558,-2.200253,-6.141799,-2.199428,-6.142967,-2.198588,-6.144066,-2.197734,-6.145098,-2.196865,-6.146065,-2.195982,
-6.146969,-2.195083,-6.147813,-2.194169,-6.148599,-2.193240,-6.149330,-2.192295,-6.150008,-2.191334,-6.150635,-2.190357,-6.151213,-2.189363,-6.151746,-2.188353,-6.152236,-2.187327,-6.152684,-2.186283,-6.153093,-2.185222,-6.153805,-2.183047,-6.154389,-2.180801,-6.154867,-2.178482,-6.155255,-2.176088,-6.155574,-2.173617,-6.155842,-2.171067,-6.156301,-2.165726,-6.156601,-2.159763,-6.156627,-2.152415,
-6.155981,-2.134302,-6.154606,-2.112859,-6.152746,-2.089558,-6.145321,-2.007240,-6.126078,-1.802615,-6.099984,-1.597693,-6.067315,-1.392731,-6.028344,-1.187989,-5.983346,-0.983723,-5.932596,-0.780192,-5.876369,-0.577653,-5.849773,-0.490507,-3.392209,-0.490507,-3.392182,-0.498257,-3.391626,-0.505870,-3.390504,-0.513328,-3.388783,-0.520611,-3.386426,-0.527698,-3.383400,-0.534569,-3.379668,-0.541205,
-3.375196,-0.547586,-3.369949,-0.553691,-3.363891,-0.559501,-3.356988,-0.564996,-3.349205,-0.570156,-3.338678,-0.575578,-3.327997,-0.579251,-3.317184,-0.581266,-3.306262,-0.581712,-3.295253,-0.580677,-3.284179,-0.578252,-3.273061,-0.574525,-3.261923,-0.569585,-3.250786,-0.563523,-3.239673,-0.556426,-3.228606,-0.548385,-3.217606,-0.539488,-3.206696,-0.529825,-3.195899,-0.519485,-3.174729,-0.497131,
-3.154273,-0.473140,-3.134710,-0.448225,-3.116216,-0.423102,-3.098969,-0.398483,-3.045992,-0.319331,-2.775191,-0.347906,-2.774926,-0.347906,-2.778917,-0.367466,-2.785582,-0.390595,-2.804562,-0.445293,-2.827116,-0.507463,-2.838250,-0.539933,-2.848497,-0.572570,-2.857263,-0.604807,-2.863956,-0.636077,-2.867980,-0.665813,-2.868807,-0.679928,-2.868744,-0.693447,-2.867717,-0.706300,-2.865652,-0.718414,
-2.862476,-0.729720,-2.858113,-0.740146,-2.852489,-0.749621,-2.845531,-0.758075,-2.837164,-0.765437,-2.827314,-0.771636,-2.818453,-0.775804,-2.809470,-0.779056,-2.800385,-0.781426,-2.791218,-0.782950,-2.781988,-0.783663,-2.772716,-0.783601,-2.763421,-0.782797,-2.754123,-0.781289,-2.744843,-0.779110,-2.735599,-0.776297,-2.726412,-0.772883,-2.717302,-0.768906,-2.708288,-0.764399,-2.699391,-0.759398,
-2.690629,-0.753938,-2.682024,-0.748055,-2.665362,-0.735158,-2.649562,-0.720990,-2.634784,-0.705832,-2.621187,-0.689966,-2.608929,-0.673674,-2.598169,-0.657237,-2.589067,-0.640938,-2.581780,-0.625057,-2.562981,-0.572959,-2.548917,-0.525503,-2.269459,-0.525503,-2.265706,-0.587837,-2.258041,-0.648057,-2.246330,-0.705676,-2.230440,-0.760206,-2.210235,-0.811160,-2.185582,-0.858051,-2.156347,-0.900392,
-2.122395,-0.937695,-2.083593,-0.969473,-2.039806,-0.995239,-1.990900,-1.014505,-1.936741,-1.026784,-1.877195,-1.031589,-1.869120,-1.031464,-1.860888,-1.030874,-1.852529,-1.029831,-1.844071,-1.028347,-1.826973,-1.024107,-1.809825,-1.018252,-1.792857,-1.010882,-1.776299,-1.002093,-1.760381,-0.991985,-1.745333,-0.980657,-1.731386,-0.968206,-1.724898,-0.961590,-1.718771,-0.954731,-1.713034,-0.947640,
-1.707716,-0.940330,-1.702846,-0.932813,-1.698452,-0.925102,-1.694565,-0.917209,-1.691211,-0.909146,-1.688420,-0.900925,-1.686221,-0.892560,-1.684642,-0.884061,-1.683713,-0.875441,-1.683462,-0.866714,-1.683917,-0.857890,-1.685160,-0.847903,-1.686940,-0.838824,-1.689235,-0.830605,-1.692026,-0.823203,-1.695289,-0.816569,-1.699005,-0.810660,-1.703152,-0.805429,-1.707709,-0.800831,-1.712655,-0.796819,
-1.717968,-0.793349,-1.723627,-0.790373,-1.729612,-0.787848,-1.735901,-0.785726,-1.742472,-0.783962,-1.749306,-0.782511,-1.756380,-0.781326,-1.771165,-0.779574,-1.786658,-0.778339,-1.819090,-0.775960,-1.835691,-0.774084,-1.844014,-0.772814,-1.852323,-0.771262,-1.860597,-0.769382,-1.868816,-0.767128,-1.876957,-0.764455,-1.885000,-0.761317,-1.898651,-0.754749,-1.911273,-0.747090,-1.922899,-0.738399,
-1.933564,-0.728738,-1.943299,-0.718167,-1.952140,-0.706745,-1.960118,-0.694532,-1.967267,-0.681589,-1.973621,-0.667975,-1.979213,-0.653752,-1.984076,-0.638978,-1.988243,-0.623714,-1.991748,-0.608020,-1.994624,-0.591957,-1.998622,-0.558961,-2.000505,-0.525206,-2.000537,-0.491175,-1.998987,-0.457347,-1.996119,-0.424203,-1.992202,-0.392224,-1.987500,-0.361891,-1.982281,-0.333685,-1.976811,-0.308086,
-1.963620,-0.258510,-1.943046,-0.194472,-1.930290,-0.158965,-1.916049,-0.122162,-1.900444,-0.084839,-1.883595,-0.047769,-1.865621,-0.011725,-1.846644,0.022519,-1.826784,0.054190,-1.806161,0.082513,-1.784895,0.106716,-1.774059,0.117031,-1.763107,0.126025,-1.752055,0.133602,-1.740917,0.139666,-1.729709,0.144119,-1.718445,0.146865,-1.710108,0.148097,-1.702313,0.148975,-1.695033,0.149512,
-1.688236,0.149721,-1.681893,0.149615,-1.675974,0.149207,-1.670448,0.148511,-1.665287,0.147539,-1.660459,0.146304,-1.655935,0.144821,-1.651686,0.143101,-1.647680,0.141158,-1.643888,0.139006,-1.640280,0.136656,-1.636827,0.134123,-1.633497,0.131420,-1.627091,0.125554,-1.620822,0.119164,-1.607736,0.105230,-1.600439,0.097897,-1.592321,0.090460,-1.587879,0.086735,-1.583141,0.083023,
-1.578078,0.079338,-1.572660,0.075692,-1.561628,0.069050,-1.550983,0.063560,-1.540727,0.059179,-1.530863,0.055869,-1.521393,0.053588,-1.512321,0.052296,-1.503650,0.051952,-1.495381,0.052516,-1.487518,0.053948,-1.480064,0.056206,-1.473021,0.059251,-1.466392,0.063042,-1.460180,0.067538,-1.454388,0.072699,-1.449018,0.078484,-1.444073,0.084853,-1.439556,0.091766,-1.435469,0.099181,
-1.431816,0.107059,-1.428599,0.115359,-1.425821,0.124040,-1.423485,0.133062,-1.421593,0.142384,-1.420149,0.151966,-1.419154,0.161768,-1.418612,0.171748,-1.418525,0.181867,-1.418897,0.192084,-1.419730,0.202358,-1.421027,0.212649,-1.422790,0.222916,-1.425022,0.233119,-1.429215,0.248590,-1.434065,0.263264,-1.439550,0.277157,-1.445648,0.290285,-1.452337,0.302664,-1.459595,0.314310,
-1.467400,0.325239,-1.475729,0.335467,-1.484562,0.345011,-1.493875,0.353885,-1.503647,0.362107,-1.513857,0.369692,-1.524480,0.376656,-1.535497,0.383016,-1.546884,0.388787,-1.558620,0.393986,-1.570683,0.398628,-1.583051,0.402729,-1.595701,0.406306,-1.608612,0.409374,-1.621762,0.411950,-1.635128,0.414050,-1.648688,0.415689,-1.662422,0.416885,-1.676306,0.417651,-1.690318,0.418006,
-1.718641,0.417542,-1.747213,0.415622,-1.775860,0.412374,-1.775992,0.412374,-1.821070,0.402463,-1.864786,0.385407,-1.907004,0.361694,-1.947592,0.331810,-1.986415,0.296244,-2.023338,0.255481,-2.058227,0.210011,-2.090949,0.160320,-2.121369,0.106894,-2.149354,0.050223,-2.174768,-0.009208,-2.197478,-0.070910,-2.217349,-0.134397,-2.234248,-0.199181,-2.248040,-0.264775,-2.258592,-0.330691,
-2.265768,-0.396443,-2.269435,-0.461543,-2.269459,-0.525503,-2.548917,-0.525503,-2.544345,-0.510076,-2.526186,-0.437967,-2.508815,-0.358192,-2.492546,-0.272308,-2.477691,-0.181875,-2.464563,-0.088451,-2.453474,0.006404,-2.444737,0.101132,-2.438664,0.194175,-2.435568,0.283972,-2.435762,0.368966,-2.439557,0.447598,-2.447268,0.518308,-2.459205,0.579538,-2.475683,0.629730,-2.480196,0.639913,
-2.484881,0.649697,-2.489738,0.659075,-2.494770,0.668039,-2.499976,0.676583,-2.505359,0.684699,-2.510919,0.692380,-2.516658,0.699619,-2.522576,0.706409,-2.528675,0.712743,-2.534956,0.718614,-2.541421,0.724014,-2.548069,0.728938,-2.554902,0.733376,-2.561923,0.737323,-2.569130,0.740772,-2.576527,0.743714,-2.584113,0.746144,-2.591890,0.748054,-2.599860,0.749437,-2.608023,0.750285,
-2.616380,0.750592,-2.624933,0.750351,-2.633682,0.749555,-2.642630,0.748196,-2.651776,0.746267,-2.661123,0.743761,-2.670671,0.740672,-2.680421,0.736992,-2.690375,0.732713,-2.700533,0.727830,-2.710897,0.722334,-2.721941,0.715255,-2.733442,0.706107,-2.745361,0.695013,-2.757660,0.682096,-2.783245,0.651288,-2.809891,0.614669,-2.837289,0.573228,-2.865132,0.527950,-2.893114,0.479824,
-2.920927,0.429837,-2.974818,0.328226,-3.024348,0.231015,-3.100496,0.081381,-3.129084,0.029330,-3.158638,-0.022836,-3.219162,-0.127475,-3.279090,-0.232461,-3.307901,-0.285060,-3.335446,-0.337719,-3.349174,-0.364327,-3.363957,-0.394185,-3.371044,-0.409935,-3.377553,-0.426019,-3.383205,-0.442277,-3.387718,-0.458551,-3.389461,-0.466644,-3.390813,-0.474681,-3.391741,-0.482642,-3.392209,-0.490507,
-5.849773,-0.490507,-5.814939,-0.376365,-5.748580,-0.176585,-5.720915,-0.099444,-4.678937,-0.099444,-4.678735,-0.125391,-4.677266,-0.140830,-4.674991,-0.155091,-4.671948,-0.168206,-4.668173,-0.180201,-4.663704,-0.191107,-4.658577,-0.200953,-4.652830,-0.209766,-4.646500,-0.217576,-4.639623,-0.224412,-4.632237,-0.230302,-4.624379,-0.235276,-4.616086,-0.239363,-4.607394,-0.242591,-4.598342,-0.244990,
-4.588965,-0.246588,-4.579302,-0.247414,-4.569388,-0.247497,-4.559262,-0.246865,-4.548959,-0.245549,-4.538518,-0.243576,-4.527975,-0.240976,-4.517367,-0.237778,-4.506731,-0.234010,-4.496105,-0.229701,-4.485525,-0.224881,-4.475028,-0.219577,-4.464652,-0.213820,-4.454433,-0.207637,-4.444408,-0.201058,-4.434615,-0.194112,-4.425091,-0.186828,-4.415872,-0.179234,-4.405968,-0.170363,-4.396480,-0.161056,
-4.387386,-0.151340,-4.378660,-0.141238,-4.362222,-0.119981,-4.346977,-0.097490,-4.332735,-0.073968,-4.319306,-0.049619,-4.306501,-0.024645,-4.294131,0.000749,-4.269935,0.051985,-4.245203,0.102461,-4.232163,0.126905,-4.218419,0.150549,-4.203783,0.173189,-4.188066,0.194622,-3.846753,0.067093,-3.845081,0.063925,-3.844056,0.059079,-3.843795,0.044775,-3.845665,0.025024,-3.849358,0.000666,
-3.860985,-0.058499,-3.876221,-0.125987,-3.907698,-0.258989,-3.919028,-0.311036,-3.922516,-0.330499,-3.924144,-0.344466,-3.924520,-0.357632,-3.924226,-0.370142,-3.923283,-0.381997,-3.921714,-0.393199,-3.919541,-0.403747,-3.916785,-0.413644,-3.913470,-0.422890,-3.909617,-0.431485,-3.905248,-0.439432,-3.900386,-0.446730,-3.895053,-0.453380,-3.889272,-0.459385,-3.883063,-0.464744,-3.876450,-0.469458,
-3.869455,-0.473528,-3.862099,-0.476956,-3.854406,-0.479742,-3.846396,-0.481887,-3.838093,-0.483393,-3.829519,-0.484259,-3.820696,-0.484487,-3.811645,-0.484077,-3.802390,-0.483032,-3.792952,-0.481351,-3.783354,-0.479035,-3.773617,-0.476086,-3.763764,-0.472505,-3.753817,-0.468292,-3.743799,-0.463448,-3.733731,-0.457974,-3.723636,-0.451871,-3.713536,-0.445140,-3.702254,-0.436890,-3.691651,-0.428362,
-3.681688,-0.419552,-3.672329,-0.410457,-3.663534,-0.401074,-3.655267,-0.391401,-3.647489,-0.381435,-3.640163,-0.371173,-3.633251,-0.360611,-3.626715,-0.349747,-3.620518,-0.338578,-3.614621,-0.327101,-3.608986,-0.315313,-3.603577,-0.303212,-3.598355,-0.290794,-3.593283,-0.278056,-3.547546,-0.153417,-3.505373,-0.025211,-3.466297,0.105602,-3.429853,0.238064,-3.395572,0.371213,-3.362990,0.504092,
-3.301050,0.765196,-3.305952,0.782449,-3.311457,0.798568,-3.317537,0.813561,-3.324158,0.827435,-3.331290,0.840198,-3.338901,0.851856,-3.346961,0.862417,-3.355439,0.871889,-3.364302,0.880279,-3.373520,0.887594,-3.383062,0.893842,-3.392896,0.899030,-3.402991,0.903165,-3.413317,0.906255,-3.423841,0.908307,-3.434533,0.909328,-3.445361,0.909326,-3.456294,0.908308,-3.467302,0.906282,
-3.478352,0.903255,-3.489414,0.899234,-3.500456,0.894227,-3.511448,0.888240,-3.522358,0.881282,-3.533154,0.873360,-3.543806,0.864481,-3.554283,0.854652,-3.564553,0.843881,-3.574584,0.832175,-3.584347,0.819542,-3.593809,0.805989,-3.602940,0.791522,-3.616211,0.768824,-3.629192,0.745523,-3.654329,0.697395,-3.678440,0.647701,-3.701613,0.597004,-3.723936,0.545867,-3.745499,0.494852,
-3.786693,0.395441,-3.786560,0.395441,-3.788516,0.394903,-3.791911,0.395022,-3.802634,0.397077,-3.817958,0.401289,-3.837110,0.407341,-3.883813,0.423698,-3.936563,0.443612,-3.989182,0.464549,-4.035494,0.483975,-4.069320,0.499355,-4.079620,0.504735,-4.084481,0.508154,-4.086297,0.510806,-4.087787,0.513789,-4.088969,0.517083,-4.089858,0.520667,-4.090473,0.524523,-4.090829,0.528631,
-4.090835,0.537520,-4.090012,0.547178,-4.088495,0.557446,-4.086419,0.568165,-4.083919,0.579178,-4.078190,0.601449,-4.072389,0.622993,-4.067599,0.642544,-4.065921,0.651176,-4.064902,0.658834,-4.063728,0.680624,-4.063852,0.705804,-4.065310,0.733765,-4.068137,0.763900,-4.072370,0.795602,-4.078043,0.828263,-4.085194,0.861276,-4.093858,0.894032,-4.104070,0.925925,-4.115867,0.956347,
-4.129284,0.984690,-4.144358,1.010347,-4.152527,1.021979,-4.161124,1.032711,-4.170152,1.042468,-4.179617,1.051173,-4.189523,1.058752,-4.199875,1.065127,-4.210676,1.070224,-4.221932,1.073965,-4.229795,1.075883,-4.237554,1.077446,-4.245207,1.078658,-4.252749,1.079523,-4.260176,1.080044,-4.267486,1.080226,-4.274673,1.080071,-4.281734,1.079583,-4.288666,1.078767,-4.295465,1.077625,
-4.302126,1.076161,-4.308646,1.074379,-4.315021,1.072283,-4.321247,1.069875,-4.327321,1.067161,-4.333239,1.064143,-4.338997,1.060824,-4.344591,1.057210,-4.350017,1.053303,-4.355272,1.049106,-4.360351,1.044624,-4.365252,1.039861,-4.369969,1.034819,-4.374500,1.029503,-4.378840,1.023916,-4.382986,1.018061,-4.386934,1.011943,-4.390680,1.005565,-4.397551,0.992043,-4.403569,0.977525,
-4.413743,0.948198,-4.423284,0.916936,-4.432264,0.883983,-4.440761,0.849582,-4.456605,0.777416,-4.471418,0.702391,-4.500363,0.551579,-4.515701,0.479698,-4.532421,0.412771,-4.550227,0.354498,-4.572900,0.287495,-4.623388,0.139622,-4.646475,0.064909,-4.656444,0.028705,-4.664971,-0.006217,-4.671759,-0.039472,-4.676513,-0.070677,-4.678937,-0.099444,-5.720915,-0.099444,-5.677568,0.021428,
-5.602176,0.217417,-5.522680,0.411124,-5.352472,0.790659,-5.169140,1.157970,-5.094594,1.300994,-5.074655,1.337545,-5.054394,1.373045,-5.033910,1.406813,-5.013301,1.438164,-5.004936,1.449561,-4.996096,1.460221,-4.991536,1.465220,-4.986903,1.469970,-4.982213,1.474450,-4.977481,1.478637,-4.972722,1.482510,-4.967953,1.486048,-4.963187,1.489229,-4.958442,1.492030,-4.953731,1.494432,
-4.949070,1.496411,-4.944475,1.497947,-4.939962,1.499018,-4.935545,1.499602,-4.931239,1.499678,-4.927061,1.499223,-4.923026,1.498217,-4.919149,1.496638,-4.915445,1.494464,-4.911930,1.491673,-4.908619,1.488245,-4.905528,1.484156,-4.902671,1.479387,-4.900065,1.473915,-4.897725,1.467718,-4.895666,1.460775,-4.893903,1.453064,-4.892452,1.444564,-4.891328,1.435254,-4.885062,1.439239,
-4.878674,1.443066,-4.872173,1.446743,-4.865573,1.450279,-4.858882,1.453682,-4.852112,1.456962,-4.838378,1.463184,-4.824459,1.469015,-4.810440,1.474526,-4.796409,1.479785,-4.782452,1.484863,-4.600429,1.541135,-4.412516,1.581978,-4.219643,1.608392,-4.022742,1.621376,-3.822744,1.621927,-3.620579,1.611046,-3.620579,1.611046,$1*%
%AMFreePoly6*
4,1,17,0.084798,0.280889,0.088867,0.276762,0.092384,0.271067,0.095375,0.263904,0.097867,0.255371,0.101453,0.234586,0.103350,0.209497,0.103764,0.180891,0.102902,0.149553,0.100970,0.116269,0.098176,0.081823,0.090827,0.012593,0.082510,-0.051853,0.069584,-0.141254,-0.203252,-0.100917,0.055693,0.283932,0.084798,0.280889,0.084798,0.280889,$1*%
%AMFreePoly7*
4,1,48,0.069405,0.127980,0.080293,0.127210,0.090632,0.125635,0.100352,0.123197,0.109379,0.119840,0.117639,0.115510,0.125062,0.110149,0.131572,0.103703,0.137099,0.096114,0.141569,0.087328,0.144909,0.077288,0.147046,0.065939,0.147908,0.053224,0.147422,0.039087,0.145515,0.023474,0.144080,0.016498,0.142050,0.009567,0.139455,0.002687,0.136323,-0.004134,0.132683,-0.010889,
0.128564,-0.017569,0.123995,-0.024168,0.119005,-0.030677,0.113623,-0.037090,0.107876,-0.043398,0.101796,-0.049595,0.095409,-0.055673,0.081833,-0.067440,0.067380,-0.078639,0.052281,-0.089211,0.036766,-0.099094,0.021066,-0.108229,0.005412,-0.116555,-0.009965,-0.124012,-0.024835,-0.130540,-0.038967,-0.136079,-0.052129,-0.140568,-0.137192,0.067659,-0.119842,0.076232,-0.099732,0.085381,
-0.077444,0.094658,-0.053561,0.103617,-0.028665,0.111811,-0.003338,0.118791,0.021838,0.124110,0.046280,0.127322,0.058043,0.127998,0.069405,0.127980,0.069405,0.127980,$1*%
%AMFreePoly8*
4,1,52,0.031536,0.117306,0.044294,0.116240,0.056642,0.114345,0.068504,0.111591,0.079807,0.107946,0.090478,0.103379,0.100442,0.097857,0.109625,0.091349,0.117954,0.083824,0.125353,0.075250,0.131750,0.065595,0.137069,0.054827,0.141238,0.042916,0.144183,0.029828,0.145828,0.015534,0.146100,0.000000,0.144926,-0.016804,0.143472,-0.025614,0.141099,-0.034258,0.137856,-0.042731,
0.133790,-0.051031,0.128946,-0.059155,0.123374,-0.067098,0.117120,-0.074859,0.110230,-0.082433,0.102753,-0.089818,0.094736,-0.097010,0.086225,-0.104006,0.077267,-0.110803,0.058203,-0.123786,0.037919,-0.135933,0.016793,-0.147218,-0.004797,-0.157615,-0.026475,-0.167098,-0.047862,-0.175641,-0.068582,-0.183219,-0.088257,-0.189804,-0.106510,-0.195372,-0.122964,-0.199896,-0.122964,-0.200028,
-0.168075,0.047622,-0.158809,0.055496,-0.148769,0.063048,-0.126666,0.077062,-0.102357,0.089410,-0.076436,0.099840,-0.049494,0.108097,-0.022124,0.113929,-0.008462,0.115857,0.005084,0.117083,0.018442,0.117577,0.031536,0.117306,0.031536,0.117306,$1*%
G04 Aperture macros list end*
%ADD10RoundRect,0.200000X0.275000X-0.200000X0.275000X0.200000X-0.275000X0.200000X-0.275000X-0.200000X0*%
%ADD11RoundRect,0.237500X-0.237500X0.300000X-0.237500X-0.300000X0.237500X-0.300000X0.237500X0.300000X0*%
%ADD12RoundRect,0.237500X-0.237500X0.250000X-0.237500X-0.250000X0.237500X-0.250000X0.237500X0.250000X0*%
%ADD13RoundRect,0.150000X-0.587500X-0.150000X0.587500X-0.150000X0.587500X0.150000X-0.587500X0.150000X0*%
%ADD14RoundRect,0.237500X0.237500X-0.300000X0.237500X0.300000X-0.237500X0.300000X-0.237500X-0.300000X0*%
%ADD15RoundRect,0.050000X-0.387500X-0.050000X0.387500X-0.050000X0.387500X0.050000X-0.387500X0.050000X0*%
%ADD16RoundRect,0.050000X-0.050000X-0.387500X0.050000X-0.387500X0.050000X0.387500X-0.050000X0.387500X0*%
%ADD17R,3.200000X3.200000*%
%ADD18RoundRect,0.150000X-0.150000X0.512500X-0.150000X-0.512500X0.150000X-0.512500X0.150000X0.512500X0*%
%ADD19C,0.670000*%
%ADD20R,0.290000X1.300000*%
%ADD21R,0.290000X1.350000*%
%ADD22R,0.220000X1.350000*%
%ADD23R,0.250000X1.350000*%
%ADD24R,0.250000X1.300000*%
%ADD25RoundRect,0.500000X0.000010X0.600000X-0.000010X0.600000X-0.000010X-0.600000X0.000010X-0.600000X0*%
%ADD26RoundRect,0.062500X0.062500X-0.387500X0.062500X0.387500X-0.062500X0.387500X-0.062500X-0.387500X0*%
%ADD27R,1.600000X0.200000*%
%ADD28RoundRect,0.200000X-0.800000X0.200000X-0.800000X-0.200000X0.800000X-0.200000X0.800000X0.200000X0*%
%ADD29RoundRect,0.200000X-0.200000X-0.800000X0.200000X-0.800000X0.200000X0.800000X-0.200000X0.800000X0*%
%ADD30RoundRect,0.237500X0.300000X0.237500X-0.300000X0.237500X-0.300000X-0.237500X0.300000X-0.237500X0*%
%ADD31RoundRect,0.237500X-0.250000X-0.237500X0.250000X-0.237500X0.250000X0.237500X-0.250000X0.237500X0*%
%ADD32RoundRect,0.250000X-0.450000X-0.350000X0.450000X-0.350000X0.450000X0.350000X-0.450000X0.350000X0*%
%ADD33RoundRect,0.112500X0.112500X-0.187500X0.112500X0.187500X-0.112500X0.187500X-0.112500X-0.187500X0*%
%ADD34RoundRect,0.200000X-0.200000X-0.275000X0.200000X-0.275000X0.200000X0.275000X-0.200000X0.275000X0*%
%ADD35FreePoly0,0.000000*%
%ADD36RoundRect,0.200000X-0.600000X-0.600000X0.600000X-0.600000X0.600000X0.600000X-0.600000X0.600000X0*%
%ADD37RoundRect,0.800000X-0.800000X-0.000010X0.800000X-0.000010X0.800000X0.000010X-0.800000X0.000010X0*%
%ADD38C,1.600000*%
%ADD39FreePoly1,0.000000*%
%ADD40FreePoly2,0.000000*%
%ADD41FreePoly3,0.000000*%
%ADD42FreePoly4,0.000000*%
%ADD43FreePoly5,0.000000*%
%ADD44FreePoly6,0.000000*%
%ADD45FreePoly7,0.000000*%
%ADD46FreePoly8,0.000000*%
G04 APERTURE END LIST*
D10*
%TO.C,R8*%
X113650000Y-91810000D03*
X113650000Y-90160000D03*
%TD*%
D11*
%TO.C,C2*%
X111110189Y-67637331D03*
X111110189Y-69362331D03*
%TD*%
D12*
%TO.C,R4*%
X108990000Y-60335000D03*
X108990000Y-62160000D03*
%TD*%
D13*
%TO.C,U4*%
X107041223Y-65698652D03*
X107041223Y-67598652D03*
X108916223Y-66648652D03*
%TD*%
D14*
%TO.C,C4*%
X105320000Y-89102500D03*
X105320000Y-87377500D03*
%TD*%
D15*
%TO.C,U1*%
X106435837Y-77301484D03*
X106435837Y-77701484D03*
X106435837Y-78101484D03*
X106435837Y-78501484D03*
X106435837Y-78901484D03*
X106435837Y-79301484D03*
X106435837Y-79701484D03*
X106435837Y-80101484D03*
X106435837Y-80501484D03*
X106435837Y-80901484D03*
X106435837Y-81301484D03*
X106435837Y-81701484D03*
X106435837Y-82101484D03*
X106435837Y-82501484D03*
D16*
X107273337Y-83338984D03*
X107673337Y-83338984D03*
X108073337Y-83338984D03*
X108473337Y-83338984D03*
X108873337Y-83338984D03*
X109273337Y-83338984D03*
X109673337Y-83338984D03*
X110073337Y-83338984D03*
X110473337Y-83338984D03*
X110873337Y-83338984D03*
X111273337Y-83338984D03*
X111673337Y-83338984D03*
X112073337Y-83338984D03*
X112473337Y-83338984D03*
D15*
X113310837Y-82501484D03*
X113310837Y-82101484D03*
X113310837Y-81701484D03*
X113310837Y-81301484D03*
X113310837Y-80901484D03*
X113310837Y-80501484D03*
X113310837Y-80101484D03*
X113310837Y-79701484D03*
X113310837Y-79301484D03*
X113310837Y-78901484D03*
X113310837Y-78501484D03*
X113310837Y-78101484D03*
X113310837Y-77701484D03*
X113310837Y-77301484D03*
D16*
X112473337Y-76463984D03*
X112073337Y-76463984D03*
X111673337Y-76463984D03*
X111273337Y-76463984D03*
X110873337Y-76463984D03*
X110473337Y-76463984D03*
X110073337Y-76463984D03*
X109673337Y-76463984D03*
X109273337Y-76463984D03*
X108873337Y-76463984D03*
X108473337Y-76463984D03*
X108073337Y-76463984D03*
X107673337Y-76463984D03*
X107273337Y-76463984D03*
D17*
X109873337Y-79901484D03*
%TD*%
D11*
%TO.C,C1*%
X112650189Y-67637331D03*
X112650189Y-69362331D03*
%TD*%
%TO.C,C14*%
X114272500Y-86485000D03*
X114272500Y-88210000D03*
%TD*%
D12*
%TO.C,R1*%
X112850000Y-64257500D03*
X112850000Y-66082500D03*
%TD*%
D10*
%TO.C,R14*%
X111200000Y-87390000D03*
X111200000Y-85740000D03*
%TD*%
D18*
%TO.C,U2*%
X114560000Y-59860000D03*
X113610000Y-59860000D03*
X112660000Y-59860000D03*
X112660000Y-62135000D03*
X113610000Y-62135000D03*
X114560000Y-62135000D03*
%TD*%
D19*
%TO.C,P1*%
X112570000Y-55130000D03*
X106770000Y-55130000D03*
D20*
X112970000Y-56580000D03*
D21*
X112170000Y-56580000D03*
D22*
X110920000Y-56580000D03*
X109920000Y-56580000D03*
X109420000Y-56580000D03*
X108420000Y-56580000D03*
D21*
X107170000Y-56580000D03*
X106370000Y-56580000D03*
D23*
X106620000Y-56580000D03*
X107420000Y-56580000D03*
D22*
X107920000Y-56580000D03*
X108920000Y-56580000D03*
X110420000Y-56580000D03*
X111420000Y-56580000D03*
D23*
X111920000Y-56580000D03*
D24*
X112720000Y-56580000D03*
D25*
X113990000Y-55660000D03*
X113990000Y-51480000D03*
X105350000Y-55660000D03*
X105350000Y-51480000D03*
%TD*%
D12*
%TO.C,R5*%
X105235000Y-66017362D03*
X105235000Y-67842362D03*
%TD*%
D14*
%TO.C,C6*%
X105900000Y-74825000D03*
X105900000Y-73100000D03*
%TD*%
D26*
%TO.C,U3*%
X107284783Y-74088957D03*
X107784783Y-74088957D03*
X108284783Y-74088957D03*
X108784783Y-74088957D03*
X108784783Y-71238957D03*
X108284783Y-71238957D03*
X107784783Y-71238957D03*
X107284783Y-71238957D03*
D27*
X108034783Y-72663957D03*
%TD*%
D11*
%TO.C,C3*%
X111200000Y-89090000D03*
X111200000Y-90815000D03*
%TD*%
D28*
%TO.C,SW1*%
X106175000Y-60000000D03*
X106175000Y-64200000D03*
%TD*%
D14*
%TO.C,C11*%
X112650189Y-72772331D03*
X112650189Y-71047331D03*
%TD*%
D11*
%TO.C,C7*%
X102910000Y-80901484D03*
X102910000Y-82626484D03*
%TD*%
D14*
%TO.C,C10*%
X115990000Y-72700000D03*
X115990000Y-70975000D03*
%TD*%
D29*
%TO.C,SW2*%
X105255922Y-92645825D03*
X109455922Y-92645825D03*
%TD*%
D14*
%TO.C,C9*%
X116220000Y-82350000D03*
X116220000Y-80625000D03*
%TD*%
D12*
%TO.C,R3*%
X110550000Y-60335000D03*
X110550000Y-62160000D03*
%TD*%
D30*
%TO.C,C12*%
X106960000Y-69400000D03*
X105235000Y-69400000D03*
%TD*%
D14*
%TO.C,C5*%
X114451258Y-76077788D03*
X114451258Y-74352788D03*
%TD*%
D31*
%TO.C,R6*%
X105262500Y-58530000D03*
X107087500Y-58530000D03*
%TD*%
D32*
%TO.C,Y1*%
X107140000Y-89090000D03*
X109340000Y-89090000D03*
X109340000Y-87390000D03*
X107140000Y-87390000D03*
%TD*%
D14*
%TO.C,C15*%
X111110189Y-72772331D03*
X111110189Y-71047331D03*
%TD*%
D11*
%TO.C,C8*%
X112740000Y-86485000D03*
X112740000Y-88210000D03*
%TD*%
D33*
%TO.C,D1*%
X110940000Y-66197500D03*
X110940000Y-64097500D03*
%TD*%
D34*
%TO.C,R7*%
X112500000Y-93370000D03*
X114150000Y-93370000D03*
%TD*%
D35*
%TO.C,A1*%
X99980000Y-51460000D03*
D36*
X100780000Y-51460000D03*
D37*
X99980000Y-54000000D03*
D38*
X100780000Y-54000000D03*
D39*
X99980000Y-56540000D03*
D40*
X100780000Y-56540000D03*
D37*
X99980000Y-59080000D03*
D38*
X100780000Y-59080000D03*
D37*
X99980000Y-61620000D03*
D38*
X100780000Y-61620000D03*
D37*
X99980000Y-64160000D03*
D38*
X100780000Y-64160000D03*
D37*
X99980000Y-66700000D03*
D38*
X100780000Y-66700000D03*
D39*
X99980000Y-69240000D03*
D40*
X100780000Y-69240000D03*
D37*
X99980000Y-71780000D03*
D38*
X100780000Y-71780000D03*
D37*
X99980000Y-74320000D03*
D38*
X100780000Y-74320000D03*
D37*
X99980000Y-76860000D03*
D38*
X100780000Y-76860000D03*
D37*
X99980000Y-79400000D03*
D38*
X100780000Y-79400000D03*
D39*
X99980000Y-81940000D03*
D40*
X100780000Y-81940000D03*
D37*
X99980000Y-84480000D03*
D38*
X100780000Y-84480000D03*
D37*
X99980000Y-87020000D03*
D38*
X100780000Y-87020000D03*
D37*
X99980000Y-89560000D03*
D38*
X100780000Y-89560000D03*
D37*
X99980000Y-92100000D03*
D38*
X100780000Y-92100000D03*
D39*
X99980000Y-94640000D03*
D40*
X100780000Y-94640000D03*
D37*
X99980000Y-97180000D03*
D38*
X100780000Y-97180000D03*
D37*
X99980000Y-99720000D03*
D38*
X100780000Y-99720000D03*
X118560000Y-99720000D03*
D37*
X119360000Y-99720000D03*
D38*
X118560000Y-97180000D03*
D37*
X119360000Y-97180000D03*
D41*
X118560000Y-94640000D03*
D35*
X119360000Y-94640000D03*
D38*
X118560000Y-92100000D03*
D37*
X119360000Y-92100000D03*
D38*
X118560000Y-89560000D03*
D37*
X119360000Y-89560000D03*
D38*
X118560000Y-87020000D03*
D37*
X119360000Y-87020000D03*
D38*
X118560000Y-84480000D03*
D37*
X119360000Y-84480000D03*
D41*
X118560000Y-81940000D03*
D35*
X119360000Y-81940000D03*
D38*
X118560000Y-79400000D03*
D37*
X119360000Y-79400000D03*
D38*
X118560000Y-76860000D03*
D37*
X119360000Y-76860000D03*
D38*
X118560000Y-74320000D03*
D37*
X119360000Y-74320000D03*
D38*
X118560000Y-71780000D03*
D37*
X119360000Y-71780000D03*
D41*
X118560000Y-69240000D03*
D35*
X119360000Y-69240000D03*
D38*
X118560000Y-66700000D03*
D37*
X119360000Y-66700000D03*
D38*
X118560000Y-64160000D03*
D37*
X119360000Y-64160000D03*
D38*
X118560000Y-61620000D03*
D37*
X119360000Y-61620000D03*
D38*
X118560000Y-59080000D03*
D37*
X119360000Y-59080000D03*
D41*
X118560000Y-56540000D03*
D35*
X119360000Y-56540000D03*
D38*
X118560000Y-54000000D03*
D37*
X119360000Y-54000000D03*
D38*
X118560000Y-51460000D03*
D37*
X119360000Y-51460000D03*
%TD*%
D14*
%TO.C,C13*%
X114451258Y-72700000D03*
X114451258Y-70975000D03*
%TD*%
D12*
%TO.C,R2*%
X114395150Y-64268219D03*
X114395150Y-66093219D03*
%TD*%
D42*
%TO.C,SW3*%
X106460926Y-95075894D03*
D43*
X110374516Y-96970894D03*
D44*
X107634516Y-96870894D03*
D45*
X113104516Y-96890894D03*
D46*
X113264516Y-97247491D03*
%TD*%
M02*
