M48
; DRILL file {KiCad 9.0.6} date 2026-01-08T18:16:28+1100
; FORMAT={-:-/ absolute / metric / decimal}
; #@! TF.CreationDate,2026-01-08T18:16:28+11:00
; #@! TF.GenerationSoftware,Kicad,Pcbnew,9.0.6
; #@! TF.FileFunction,Plated,1,2,PTH
FMAT,2
METRIC
; #@! TA.AperFunction,Plated,PTH,ViaDrill
T1C0.300
; #@! TA.AperFunction,Plated,PTH,ComponentDrill
T2C0.600
; #@! TA.AperFunction,Plated,PTH,ComponentDrill
T3C1.000
%
G90
G05
T1
X101.98Y-83.42
X102.56Y-51.3
X102.91Y-83.85
X103.14Y-50.95
X103.48Y-52.07
X103.96Y-51.6
X104.2Y-61.3
X104.22Y-62.9
X104.23Y-81.66
X104.25Y-59.69
X104.28Y-53.85
X104.284Y-82.458
X104.36Y-57.31
X104.71Y-53.42
X105.18Y-97.22
X105.29Y-57.42
X105.49Y-70.44
X105.52Y-62.58
X105.55Y-61.64
X105.681Y-72.009
X105.82Y-90.56
X106.17Y-99.88
X107.08Y-90.56
X107.11Y-61.66
X107.11Y-62.61
X107.13Y-85.99
X107.47Y-72.33
X107.49Y-51.22
X107.52Y-53.78
X107.56Y-82.32
X108.04Y-73.02
X108.15Y-90.56
X108.46Y-72.32
X108.54Y-63.65
X108.54Y-68.76
X108.886Y-78.971
X108.91Y-57.74
X109.32Y-90.6
X109.33Y-64.44
X109.35Y-63.59
X109.73Y-69.1
X109.873Y-79.901
X109.94Y-57.755
X110.08Y-67.637
X110.2Y-93.39
X110.591Y-77.587
X110.814Y-78.971
X111.11Y-74.02
X111.361Y-77.801
X111.86Y-59.56
X111.861Y-58.712
X112.01Y-51.24
X112.01Y-53.78
X112.078Y-74.258
X112.34Y-77.98
X112.375Y-82.401
X112.46Y-94.3
X112.47Y-90.66
X112.614Y-95.501
X112.848Y-65.211
X113.01Y-58.631
X113.93Y-99.88
X114.216Y-79.596
X114.388Y-65.211
X114.87Y-53.36
X114.895Y-81.025
X114.95Y-77.39
X115.51Y-52.56
X115.516Y-74.016
X115.55Y-51.73
X115.68Y-51.06
X115.96Y-68.47
X115.991Y-75.56
X116.01Y-70.06
X116.103Y-83.101
X116.52Y-51.69
X116.71Y-51.06
X116.867Y-77.537
X117.26Y-74.53
T3
X100.78Y-51.46
X100.78Y-54.0
X100.78Y-56.54
X100.78Y-59.08
X100.78Y-61.62
X100.78Y-64.16
X100.78Y-66.7
X100.78Y-69.24
X100.78Y-71.78
X100.78Y-74.32
X100.78Y-76.86
X100.78Y-79.4
X100.78Y-81.94
X100.78Y-84.48
X100.78Y-87.02
X100.78Y-89.56
X100.78Y-92.1
X100.78Y-94.64
X100.78Y-97.18
X100.78Y-99.72
X118.56Y-51.46
X118.56Y-54.0
X118.56Y-56.54
X118.56Y-59.08
X118.56Y-61.62
X118.56Y-64.16
X118.56Y-66.7
X118.56Y-69.24
X118.56Y-71.78
X118.56Y-74.32
X118.56Y-76.86
X118.56Y-79.4
X118.56Y-81.94
X118.56Y-84.48
X118.56Y-87.02
X118.56Y-89.56
X118.56Y-92.1
X118.56Y-94.64
X118.56Y-97.18
X118.56Y-99.72
T2
G00X105.35Y-51.78
M15
G01X105.35Y-51.18
M16
G05
G00X105.35Y-56.21
M15
G01X105.35Y-55.11
M16
G05
G00X113.99Y-51.78
M15
G01X113.99Y-51.18
M16
G05
G00X113.99Y-56.21
M15
G01X113.99Y-55.11
M16
G05
M30
